<svg xmlns="http://www.w3.org/2000/svg" viewBox="0 0 864.67 863.39"><defs><style>.cls-1{fill:#ffb21d;}.cls-2{fill:#77aa2d;}.cls-3{fill:#fc693b;}.cls-4{fill:#0079af;}</style></defs><title>Recurso 1</title><g id="Capa_2" data-name="Capa 2"><g id="Capa_1-2" data-name="Capa 1"><path class="cls-1" d="M654.34,534.87c-70.63,0-153.19-19.61-235.74-82.9C230.31,307.59,39.24,420.63,0,446.88A428.06,428.06,0,0,0,52.78,638.7c22.78-15.88,60.13-38.11,106.9-52.12,72.91-21.84,182.73-27.23,291.9,71.11C603.93,794.92,755,697.16,795.43,666a428.31,428.31,0,0,0,66.8-186.57,474.5,474.5,0,0,1-108,42.58A404.58,404.58,0,0,1,654.34,534.87Z"/><path class="cls-2" d="M621.57,290c-61.34,0-132.93-19.95-204.32-84.25-73.44-66.15-155.14-86.37-242.84-60.09-57,17.09-98,48.59-109,57.63A428.16,428.16,0,0,0,2.16,385.76a477,477,0,0,1,111.61-44.43c83.74-21.36,210-26.53,336,70.09,183.89,141,369.87,36.45,414.86,7.06a428.1,428.1,0,0,0-51.85-192c-22.92,15.73-59.09,36.82-104,50.3A303.88,303.88,0,0,1,621.57,290Z"/><path class="cls-3" d="M417.25,695.63c-73.44-66.15-155.14-86.37-242.84-60.09-42,12.59-75.32,33-94.35,46.49,78.52,109.7,207.15,181.35,352.23,181.35a431,431,0,0,0,270.24-94.87,301.7,301.7,0,0,1-81,11.37C560.22,779.88,488.64,759.94,417.25,695.63Z"/><path class="cls-4" d="M432.3,0A431.09,431.09,0,0,0,159.92,96.58c72.91-21.78,182.6-27.05,291.65,71.18,142.14,128,283.13,51.53,334.25,15.43C707.43,72.45,578.19,0,432.3,0Z"/></g></g></svg>