<svg xmlns="http://www.w3.org/2000/svg" viewBox="0 0 76.62 202.07"><defs><style>.cls-1,.cls-15{fill:none;}.cls-2{fill:#46525b;}.cls-3{fill:#aeb8bf;}.cls-4{fill:#8d99a2;}.cls-5{fill:#a8b2b9;}.cls-6{fill:#a3acb5;}.cls-7{fill:#7b868e;}.cls-8{fill:#95a1aa;}.cls-9{fill:#9aa4ae;}.cls-10{fill:#828f98;}.cls-11{fill:#748088;}.cls-12{fill:#c0c8cf;}.cls-13{fill:#cfd5d9;}.cls-14{fill:#b6bfc6;}.cls-15{stroke:#8d99a2;stroke-linecap:round;stroke-linejoin:round;stroke-width:0;}.cls-16{fill:#abc956;}.cls-17{fill:#fdfdfd;}.cls-18{fill:#dfe696;}</style></defs><title>Recurso 1</title><g id="Capa_2" data-name="Capa 2"><g id="Capa_2-2" data-name="Capa 2"><path class="cls-1" d="M71,32.1a1.27,1.27,0,0,0-.88.49h0A1.27,1.27,0,0,1,71,32.1Z"/><path class="cls-1" d="M32.4,22.93a.56.56,0,0,1,.06.52h0A.56.56,0,0,0,32.4,22.93Z"/><path class="cls-1" d="M63.16,159.13a2.29,2.29,0,0,1,0-2A3.69,3.69,0,0,1,65.33,154a4.8,4.8,0,0,1,3.48-.6,4.8,4.8,0,0,0-3.48.6,3.69,3.69,0,0,0-2.22,3.14A2.29,2.29,0,0,0,63.16,159.13Z"/><path class="cls-1" d="M29.6,126.19a.94.94,0,0,0,.66.21c.1.38.2.77.32,1.15-.12-.38-.21-.77-.32-1.15A.94.94,0,0,1,29.6,126.19Z"/><path class="cls-1" d="M32.35,22.9a1.27,1.27,0,0,0-.56-.17A1.27,1.27,0,0,1,32.35,22.9Z"/><path class="cls-1" d="M20.46,24.63h0a.61.61,0,0,1,.29.1A.61.61,0,0,0,20.46,24.63Z"/><path class="cls-1" d="M57.45,74.89a7.79,7.79,0,0,1-1-1.2A7.79,7.79,0,0,0,57.45,74.89Z"/><path class="cls-1" d="M68.61,30.19a34.87,34.87,0,0,0-5-2.26c-.32-.15-.64-.32-1-.44.33.13.65.3,1,.44A34.85,34.85,0,0,1,68.61,30.19Z"/><path class="cls-1" d="M18.75,33l3.62-.94h0Z"/><path class="cls-1" d="M64.64,38.16a3,3,0,0,0,0-.33h0A3,3,0,0,1,64.64,38.16Z"/><path class="cls-1" d="M66.33,61a9.25,9.25,0,0,1,1.54.4A9.25,9.25,0,0,0,66.33,61Z"/><path class="cls-1" d="M71.35,32.07l-.34,0,.34,0Z"/><path class="cls-1" d="M64.86,56.56h-.24l-.69,0,.69,0Z"/><path class="cls-1" d="M22.66,34.51a2.06,2.06,0,0,1-.46-.6A2.06,2.06,0,0,0,22.66,34.51Z"/><path class="cls-1" d="M67.47,75.72a.35.35,0,0,1-.19.43.35.35,0,0,0,.19-.43h0Z"/><path class="cls-1" d="M56.37,79.83a2.39,2.39,0,0,1,.42,0A2.38,2.38,0,0,0,56.37,79.83Z"/><path class="cls-1" d="M27.85,73.45a9.25,9.25,0,0,0-1.4,1.35c-1.16.59-2.3,1.22-3.47,1.76,1.18-.54,2.32-1.17,3.47-1.76A9.24,9.24,0,0,1,27.85,73.45Z"/><path class="cls-1" d="M70.27,59.92c.05-.31.08-.63.13-.94,0-.14.07-.29.11-.44,0,.15-.09.3-.11.44C70.36,59.29,70.32,59.6,70.27,59.92Z"/><path class="cls-1" d="M68,75.53h0l-.51.18h0Z"/><path class="cls-1" d="M58,68.73a5.59,5.59,0,0,0-.14,1.06h0A5.6,5.6,0,0,1,58,68.73Z"/><path class="cls-1" d="M73.51,71.14a19.32,19.32,0,0,0-.3-2.07h0A19.24,19.24,0,0,1,73.51,71.14Z"/><path class="cls-1" d="M63.42,56.3h-.7L62,56.1l.69.18Z"/><path class="cls-1" d="M29.46,126a1.5,1.5,0,0,1-.2-.37A1.5,1.5,0,0,0,29.46,126Z"/><path class="cls-1" d="M63.21,143.41a9.27,9.27,0,0,0-.41-3.3,43.79,43.79,0,0,0-.77-8,43.71,43.71,0,0,1,.77,8A9.24,9.24,0,0,1,63.21,143.41Z"/><path class="cls-1" d="M21.43,44.86a.66.66,0,0,0,0,.19.66.66,0,0,1,0-.19.79.79,0,0,0,.61-.3.79.79,0,0,1-.61.3.82.82,0,0,0-.73.16c-3.14.66-6.27,1.32-9.41,2,3.14-.64,6.27-1.3,9.41-2A.81.81,0,0,1,21.43,44.86Z"/><path class="cls-1" d="M61.6,137.94c-.18,0-.38,0-.57,0,0-.26,0-.52,0-.78,0,.26,0,.52,0,.78C61.22,137.92,61.42,137.92,61.6,137.94Z"/><path class="cls-1" d="M24,110a10.36,10.36,0,0,1,.7-1.25A10.35,10.35,0,0,0,24,110Z"/><path class="cls-1" d="M61.6,137.94a.79.79,0,0,1,.32.11A.79.79,0,0,0,61.6,137.94Z"/><path class="cls-1" d="M59.52,123.91h0a.51.51,0,0,1-.18.11A.51.51,0,0,0,59.52,123.91Z"/><path class="cls-1" d="M24,110c-.32.65-.59,1.32-.9,2l-.47.48.47-.48C23.4,111.35,23.68,110.67,24,110Z"/><path class="cls-1" d="M32.7,117.3h0a1.15,1.15,0,0,1,0-.18A1.15,1.15,0,0,0,32.7,117.3Z"/><path class="cls-1" d="M28.86,124.23l-.71,0a1.75,1.75,0,0,1-.08.58,1.75,1.75,0,0,0,.08-.58l.71,0a7.72,7.72,0,0,1,1.35-3.73A7.72,7.72,0,0,0,28.86,124.23Z"/><path class="cls-1" d="M52.31,112.61a2.16,2.16,0,0,1,.42,0A2.16,2.16,0,0,0,52.31,112.61Z"/><path class="cls-1" d="M32.66,116.38a.93.93,0,0,1,0,.36A.93.93,0,0,0,32.66,116.38Z"/><path class="cls-1" d="M36.33,69.05a1.35,1.35,0,0,0-.56-.4,1.34,1.34,0,0,1,.56.4Z"/><path class="cls-1" d="M14.72,158.57a3.33,3.33,0,0,1-2,2.85,3.33,3.33,0,0,0,2-2.85,5.85,5.85,0,0,0-.05-1.35A5.85,5.85,0,0,1,14.72,158.57Z"/><path class="cls-1" d="M33.42,108.87a4.42,4.42,0,0,1-.48-.53A4.43,4.43,0,0,0,33.42,108.87Z"/><path class="cls-1" d="M9.88,153.79a4.11,4.11,0,0,0-3.42,1.86,3.14,3.14,0,0,0-.86,1.94,3.14,3.14,0,0,1,.86-1.94A4.11,4.11,0,0,1,9.88,153.79Z"/><path class="cls-1" d="M69.63,153.64a4.5,4.5,0,0,1,1.43,1A4.5,4.5,0,0,0,69.63,153.64Z"/><path class="cls-1" d="M45.09,68.39c0-.07,0-.17-.08-.19s.06.12.08.19Z"/><path class="cls-1" d="M42.09,103.57c0,.66,0,1.31,0,2a3,3,0,0,1-.79,1.32,3,3,0,0,0,.79-1.32C42.06,104.88,42.07,104.22,42.09,103.57Z"/><path class="cls-1" d="M58.41,119c.48,1.32.91,2.66,1.33,4C59.32,121.66,58.89,120.32,58.41,119Z"/><path class="cls-1" d="M18.5,113.67l1-2.39,1.07-1.86-1.07,1.86Z"/><path class="cls-1" d="M32.95,108.35a1.42,1.42,0,0,1-.27-.66,4.71,4.71,0,0,1,0-2.58,4.72,4.72,0,0,0,0,2.58A1.42,1.42,0,0,0,32.95,108.35Z"/><path class="cls-1" d="M12.75,161.41a6,6,0,0,1-.92.43A6,6,0,0,0,12.75,161.41Z"/><path class="cls-1" d="M20.78,24.77a.56.56,0,0,1,.16.39A.56.56,0,0,0,20.78,24.77Z"/><path class="cls-1" d="M25.57,57.39c-.55-.55-1.15-1.05-1.75-1.56a2.83,2.83,0,0,0-.46-.63,2.83,2.83,0,0,1,.46.63C24.42,56.34,25,56.85,25.57,57.39Z"/><path class="cls-1" d="M10.2,62.87A5.88,5.88,0,0,0,10.77,64,5.88,5.88,0,0,1,10.2,62.87Z"/><path class="cls-1" d="M68,55.22v0Z"/><path class="cls-1" d="M68,55.13a.71.71,0,0,0-.2-.18A.71.71,0,0,1,68,55.13Z"/><path class="cls-1" d="M13.38,53.16a1.6,1.6,0,0,0,.38.41A1.6,1.6,0,0,1,13.38,53.16Z"/><path class="cls-1" d="M18.38,55a11.36,11.36,0,0,0-3.67-.38,1.1,1.1,0,0,0-.28-.48,1.1,1.1,0,0,1,.28.48A11.36,11.36,0,0,1,18.38,55Z"/><path class="cls-1" d="M61.64,50.24c-.22.15-.31.49-.28,1S61.11,52.42,61,53c.11-.58.24-1.15.36-1.73S61.42,50.39,61.64,50.24Z"/><path class="cls-1" d="M14.73,67.33h0a2,2,0,0,1,0,.32A2,2,0,0,0,14.73,67.33Z"/><path class="cls-1" d="M12.3,66.18h0L12.2,66Z"/><path class="cls-1" d="M72.35,74.53a6.52,6.52,0,0,0,1.17-2.68,3,3,0,0,0,.21-.55,3,3,0,0,1-.21.55A6.52,6.52,0,0,1,72.35,74.53Z"/><path class="cls-1" d="M13.73,69.26a.79.79,0,0,0,.14.21.79.79,0,0,1-.14-.21Z"/><path class="cls-1" d="M14.42,54.11a3.37,3.37,0,0,0-.43-.36A3.37,3.37,0,0,1,14.42,54.11Z"/><path class="cls-1" d="M23.07,72.48a.42.42,0,0,0-.1-.22A.42.42,0,0,1,23.07,72.48Z"/><path class="cls-1" d="M19.37,72.18l-.66.11Z"/><path class="cls-1" d="M19.34,43c-2.35.61-4.68,1.33-7.09,1.71A31.88,31.88,0,0,1,7.82,46a32,32,0,0,0,4.44-1.26C14.66,44.32,17,43.6,19.34,43Z"/><path class="cls-1" d="M21.62,56.45a11.64,11.64,0,0,0-2.12-1.11A11.64,11.64,0,0,1,21.62,56.45Z"/><path class="cls-1" d="M5,43.78a1,1,0,0,0,.23.6c.1.5.21,1,.31,1.51-.1-.5-.21-1-.31-1.51A1,1,0,0,1,5,43.78Z"/><path class="cls-1" d="M16.37,40.59l.76-.25Z"/><path class="cls-1" d="M7,58.92a1.28,1.28,0,0,1-.41-.28A1.28,1.28,0,0,0,7,58.92Z"/><polygon class="cls-1" points="22.02 70.96 22.02 70.68 22.02 70.68 22.02 70.96"/><polygon class="cls-1" points="69.02 75.52 68.02 75.52 69.02 75.26 69.02 75.26 69.02 75.52"/><path class="cls-1" d="M69.33,75.58a1.61,1.61,0,0,1,1.31.48h0A1.61,1.61,0,0,0,69.33,75.58Z"/><path class="cls-1" d="M6.44,58.41A2.22,2.22,0,0,1,6.2,58,2.22,2.22,0,0,0,6.44,58.41Z"/><path class="cls-1" d="M25.73,65.92h0Z"/><path class="cls-1" d="M71.65,69.93a1.76,1.76,0,0,0,1.08-.5,1.76,1.76,0,0,1-1.08.5Z"/><path class="cls-1" d="M32.71,81.64c0,1.64-.06,3.27-.09,4.91h0C32.65,84.91,32.7,83.27,32.71,81.64Z"/><polygon class="cls-1" points="39.91 87.24 37.49 88.24 39.91 87.24 39.91 87.24"/><path class="cls-1" d="M53.68,85.85a9.79,9.79,0,0,1-.36,1.43h0A9.78,9.78,0,0,0,53.68,85.85Z"/><path class="cls-1" d="M47.44,85.35c-.11.72-.23,1.45-.35,2.17h0C47.21,86.8,47.33,86.07,47.44,85.35Z"/><path class="cls-1" d="M19.47,82.71a3.4,3.4,0,0,1-.22-1.12,3.4,3.4,0,0,0,.22,1.12,2.53,2.53,0,0,1-.48,0A2.53,2.53,0,0,0,19.47,82.71Z"/><path class="cls-1" d="M70.86,65.17a6.64,6.64,0,0,1,2,2.79,6.65,6.65,0,0,0-2-2.79,1,1,0,0,0-.45-.74A1,1,0,0,1,70.86,65.17Z"/><path class="cls-1" d="M46.83,70.05c0,.21-.1.33-.28.39C46.73,70.38,46.87,70.26,46.83,70.05Z"/><path class="cls-1" d="M46.56,70.44l-.19,0h0Z"/><path class="cls-1" d="M53.66,76.09a8.8,8.8,0,0,1-1-2h0A8.8,8.8,0,0,0,53.66,76.09Z"/><path class="cls-1" d="M55.47,96a3.88,3.88,0,0,1-1.29.43A3.88,3.88,0,0,0,55.47,96a5.36,5.36,0,0,0,3-1.86A5.36,5.36,0,0,1,55.47,96Z"/><path class="cls-1" d="M21.66,71c0,.17,0,.35.05.51,0-.17,0-.34-.05-.51Z"/><path class="cls-1" d="M58,63.76a.89.89,0,0,1,.13-.21.88.88,0,0,0-.13.21,8.54,8.54,0,0,0-1.08,1.18A8.53,8.53,0,0,1,58,63.76Z"/><path class="cls-1" d="M6.74,64.62a1,1,0,0,1,0,.38l-.41.69L6.71,65A1,1,0,0,0,6.74,64.62Z"/><path class="cls-1" d="M55.43,69.78a.3.3,0,0,1,0-.49.3.3,0,0,0,0,.49l.07.95a6.64,6.64,0,0,0,.11.82,6.64,6.64,0,0,1-.11-.82Z"/><path class="cls-1" d="M15.51,86.27c-.11.16-.15.38-.29.51C15.36,86.66,15.41,86.43,15.51,86.27Z"/><path class="cls-1" d="M20.66,71.16a1.46,1.46,0,0,1-1.29,1,1.46,1.46,0,0,0,1.29-1h0Z"/><path class="cls-1" d="M21.16,70.93h0c0,.15-.1.22-.19.24.09,0,.16-.09.19-.24h0Z"/><path class="cls-1" d="M71.35,32.06h0a1,1,0,0,1,.45.12A1,1,0,0,0,71.35,32.06Z"/><path class="cls-1" d="M7,54.38H7q.34.13.66.29Q7.34,54.51,7,54.38Z"/><path class="cls-1" d="M62.67,62.12a5.58,5.58,0,0,0-2.13.65l-.73.24.73-.24A5.58,5.58,0,0,1,62.67,62.12Z"/><path class="cls-1" d="M5.92,55.35a4.49,4.49,0,0,0-.83,1.19,9.85,9.85,0,0,0-1.32,2.4,9.85,9.85,0,0,1,1.32-2.4A4.49,4.49,0,0,1,5.92,55.35Z"/><path class="cls-1" d="M67.77,75.74a.31.31,0,0,0,.2-.21h0A.31.31,0,0,1,67.77,75.74Z"/><path class="cls-1" d="M22.39,112.72l-.77-1,.77,1Z"/><path class="cls-1" d="M29.63,170.28a3,3,0,0,0-1.72-1.34,3,3,0,0,1,1.72,1.34c.75.45.73,1.26.92,2a3.65,3.65,0,0,1-.19,1.85,3.65,3.65,0,0,0,.19-1.85C30.36,171.54,30.38,170.73,29.63,170.28Z"/><path class="cls-1" d="M58.41,119a36,36,0,0,0-1.65-3.88,53,53,0,0,0-3.29-6.78,53,53,0,0,1,3.29,6.78A36,36,0,0,1,58.41,119Z"/><path class="cls-1" d="M30.37,174.1a2.56,2.56,0,0,1-.57.85A2.56,2.56,0,0,0,30.37,174.1Z"/><path class="cls-1" d="M20.32,114.31a44.07,44.07,0,0,0-2.77,8.26,26.18,26.18,0,0,0-.82,3.09,26.15,26.15,0,0,1,.82-3.09A44.05,44.05,0,0,1,20.32,114.31Z"/><path class="cls-1" d="M19.59,150.85a2.09,2.09,0,0,1-.25-.61A2.08,2.08,0,0,0,19.59,150.85Z"/><path class="cls-1" d="M26.87,168.8a3.56,3.56,0,0,1,1,.13A3.57,3.57,0,0,0,26.87,168.8Z"/><path class="cls-1" d="M58.15,150.66l.26-.25a1.13,1.13,0,0,0,.29-.58,1.13,1.13,0,0,1-.29.58Z"/><path class="cls-1" d="M47.3,125.26a15.29,15.29,0,0,1-.49,3.24h0A15.32,15.32,0,0,0,47.3,125.26Z"/><path class="cls-1" d="M45.83,124.78a5.17,5.17,0,0,1,0,.74A5.17,5.17,0,0,0,45.83,124.78Z"/><path class="cls-1" d="M24.25,156.2h0l.78-.28h0Z"/><path class="cls-1" d="M20.42,152.1c-.23-.39-.58-.83-.82-1.25.24.42.59.86.82,1.25a14,14,0,0,0,2.71,3.23A14,14,0,0,1,20.42,152.1Z"/><path class="cls-1" d="M53.69,154.58c-.31.11-.55.2-.59.6a57.32,57.32,0,0,1-6.85,1.87,57.37,57.37,0,0,0,6.85-1.87C53.14,154.78,53.37,154.69,53.69,154.58Z"/><path class="cls-1" d="M53.11,157.43A11.9,11.9,0,0,1,48.84,160a11.9,11.9,0,0,0,4.27-2.57,3.06,3.06,0,0,0,1-.83A3.05,3.05,0,0,1,53.11,157.43Z"/><path class="cls-1" d="M7.35,195.38c-.15.08-.23.29-.29.67C7.12,195.68,7.2,195.47,7.35,195.38Z"/><path class="cls-1" d="M13.67,187.31a9.89,9.89,0,0,0-3.8,2.43h0A9.88,9.88,0,0,1,13.67,187.31Z"/><path class="cls-1" d="M9.18,190.24a3.7,3.7,0,0,0-1.3,1.4,10.84,10.84,0,0,0-2.21,4.06,10.83,10.83,0,0,1,2.21-4.06A3.69,3.69,0,0,1,9.18,190.24Z"/><path class="cls-1" d="M5.76,196.91a1.75,1.75,0,0,1,.34-.3A1.75,1.75,0,0,0,5.76,196.91Z"/><path class="cls-1" d="M7.07,196.05c0,.13,0,.27,0,.43H7C7,196.32,7,196.18,7.07,196.05Z"/><path class="cls-1" d="M15.14,139.32q0,.53,0,1.05c-.06.39-.13.79-.18,1.18,0-.39.12-.79.18-1.18S15.14,139.67,15.14,139.32Z"/><path class="cls-1" d="M6.51,196.45h0Z"/><path class="cls-1" d="M26.74,187.73a6.89,6.89,0,0,1,2.67,1.34,6.9,6.9,0,0,0-2.66-1.34A14.34,14.34,0,0,0,19,186.19,14.33,14.33,0,0,1,26.74,187.73Z"/><path class="cls-1" d="M26.1,190.35l2,.13h0Z"/><path class="cls-1" d="M28.21,191a.18.18,0,0,1-.09-.15A.18.18,0,0,0,28.21,191Z"/><path class="cls-1" d="M11,189.66a.89.89,0,0,1,.61.34h0A.89.89,0,0,0,11,189.66Z"/><polygon class="cls-1" points="28.02 190.49 29.02 190.73 29.02 190.73 28.02 190.49 28.02 190.49"/><path class="cls-1" d="M34.75,197.29a6.24,6.24,0,0,0-.8-2.53,14.41,14.41,0,0,0-1.68-3,14.4,14.4,0,0,1,1.68,3A6.23,6.23,0,0,1,34.75,197.29Z"/><path class="cls-1" d="M58.76,123.48a.23.23,0,0,1,.16.11A.23.23,0,0,0,58.76,123.48Z"/><path class="cls-1" d="M44.74,122l0,0a.36.36,0,0,1,.44.27.36.36,0,0,0-.44-.27l0,0a2.23,2.23,0,0,0,0-.47A2.23,2.23,0,0,1,44.74,122Z"/><path class="cls-1" d="M54.87,186a16.81,16.81,0,0,1,2.64-.28A16.81,16.81,0,0,0,54.87,186Z"/><path class="cls-1" d="M42.53,128.65a1.46,1.46,0,0,0,0-.43h0A1.46,1.46,0,0,1,42.53,128.65Z"/><path class="cls-1" d="M66.77,190.26a39.44,39.44,0,0,0-6.15-.68,39.43,39.43,0,0,1,6.15.68c.21.38.4.44.55.36C67.17,190.71,67,190.64,66.77,190.26Z"/><path class="cls-1" d="M43.77,123.27a6.43,6.43,0,0,0-.25-.71c.08-.1.15-.21.23-.32-.08.11-.15.22-.23.32A6.43,6.43,0,0,1,43.77,123.27Z"/><path class="cls-1" d="M53.41,176.17a3.88,3.88,0,0,1-.69.07A3.88,3.88,0,0,0,53.41,176.17Z"/><path class="cls-1" d="M53.41,176.17a3.79,3.79,0,0,0,2.59-2,2.48,2.48,0,0,0,.45-1.31,2.48,2.48,0,0,1-.45,1.31A3.79,3.79,0,0,1,53.41,176.17Z"/><path class="cls-1" d="M71.44,193.35a7,7,0,0,0-1.21-1.89,7,7,0,0,1,1.21,1.89,12.35,12.35,0,0,1,1.45,5c.28.82-.2.89-.64.91.44,0,.92-.09.64-.91A12.37,12.37,0,0,0,71.44,193.35Z"/><path class="cls-1" d="M44.09,127.93a.79.79,0,0,0-.26.33A.79.79,0,0,1,44.09,127.93Z"/><path class="cls-1" d="M43.77,123.27a5.12,5.12,0,0,1,.21,1.38A5.12,5.12,0,0,0,43.77,123.27Z"/><path class="cls-1" d="M32.23,122.65a6.61,6.61,0,0,1,.41-.93A6.62,6.62,0,0,0,32.23,122.65Z"/><path class="cls-1" d="M51.86,168.75a3.67,3.67,0,0,1,.48-.06A3.66,3.66,0,0,0,51.86,168.75Z"/><path class="cls-1" d="M44.09,127.93c.16-.09.32.08.62.43h0C44.42,128,44.25,127.84,44.09,127.93Z"/><path class="cls-1" d="M49.5,170.09a3.32,3.32,0,0,0-.85,1.07,3.32,3.32,0,0,1,.85-1.07Z"/><path class="cls-1" d="M50.89,169.08a4.07,4.07,0,0,1,1-.33A4.06,4.06,0,0,0,50.89,169.08Z"/><polygon class="cls-2" points="24.25 156.2 24.25 156.2 24.25 156.2 24.25 156.2"/><path class="cls-2" d="M76.6,199.85a15.77,15.77,0,0,0-2.78-7.7A18.76,18.76,0,0,0,60.18,184c-1.1-.13-1.59-.52-1.77-1.6-.3-1.85-.71-3.69-1.11-5.52a1.69,1.69,0,0,1,.24-1.35,5.38,5.38,0,0,0-.67-6.74,2.15,2.15,0,0,1-.63-1.48c-.08-2.92-.18-5.84-.07-8.76a2.3,2.3,0,0,1,.64-1.6,14.27,14.27,0,0,0,3.91-8.06,1.75,1.75,0,0,1,1.51-1.74c.84-.24,1,0,.95.75,0,1.4,0,2.8,0,4.2a2.45,2.45,0,0,1-.74,1.91,5.23,5.23,0,0,0-.83,6.49,1,1,0,0,1-.11,1.16,7.65,7.65,0,0,0-1.28,5c.06.4.09.81.48,1a4.5,4.5,0,0,0,3.75.74c.59-.17.87-.39.67-1.1a6.36,6.36,0,0,1-.2-3c.08-.39-.15-1.32.74-.94.64.27,2-.39,1.79,1.22A16.71,16.71,0,0,1,66,169.94c-.14.28-.42.55-.23.88A2.82,2.82,0,0,0,68,172.25c.93.08,2,.3,2.6-.7a1.28,1.28,0,0,1,1.31-.72c1.84,0,2.4-.57,2.61-2.38a12.64,12.64,0,0,0-1-6.2,1.59,1.59,0,0,1,.05-1.55,5.59,5.59,0,0,0-.64-6.69,3.37,3.37,0,0,1-.8-2.15A90.47,90.47,0,0,0,63,114.56a2.11,2.11,0,0,1,0-2.2c1.33-2.46.77-4.73-1-6.74s-4-3.12-6.51-2.2a9.46,9.46,0,0,1-6.58.17c-2-.65-4.25-.53-6.06-2-.85-.67-.43-1.32-.41-2s.65-.54,1.06-.56a73.52,73.52,0,0,0,10.85-.93c3.34-.65,6.11-2,7.5-5.39.52-1.27,1.26-2.45,1.95-3.76.34.47.61.86.89,1.24,1.83,2.48,2.22,2.46,3.69-.2a6.76,6.76,0,0,1,.51-.95c.28-.35.11-1.19.93-1,.62.17,1.26.22,1.38,1.18a2.22,2.22,0,0,0,2.35,1.81,2.74,2.74,0,0,0,2.66-2A2.55,2.55,0,0,0,75,86.32a2.41,2.41,0,0,0-3.08.37c-.62.57-1,0-1.49-.17s-.41-.58-.31-1a18.46,18.46,0,0,0,.45-3.32c0-.57-.19-.8-.76-.77a12,12,0,0,0-2.49.33c-.24.07-.69.18-.52-.29.33-.9.3-1.92,1.66-2.31,6.86-2,9.52-9.31,5.27-15a4.89,4.89,0,0,1-1-4.95.65.65,0,0,0,0-.12c.08-.57.22-1,1-.73.54.21.57-.26.68-.58.39-1.18.73-2.37,1.15-3.53.27-.75.2-1.21-.67-1.36s-.95-.65-.83-1.47a98.62,98.62,0,0,0,1.18-16.73c-.11-4.57-.11-4.58-4.13-6.7C64.35,24.41,57,22.5,49.52,21.16c-1-.18-2.38.07-2.95-.64s-.27-2.09-.15-3.14a3,3,0,0,0-1.75-3.47c-.2-.09-.54-.17-.48-.61l7.5-.84c-1.45-1.11-2.62-2.13-3.92-3-1.6-1-.65-2.53-.9-3.81-.18-.92.67-.83,1.11-1.12a2.37,2.37,0,0,0,.67-3.45A2.72,2.72,0,0,0,44.73.6C43.58,1.5,43.29,3.21,44.4,4a2.09,2.09,0,0,1,.72,2.47c-.11.59-.13,1.2-.28,1.78a1.11,1.11,0,0,0,.5,1.32c.68.5,1.3,1.07,2.1,1.75L39,11.89a19.65,19.65,0,0,0,2.79,2c2.49,1.18,3,3,1.91,5.36a1.25,1.25,0,0,0-.09.35c-.07.56-.37.66-.91.61-2.27-.21-4.54-.43-6.81-.53a81.16,81.16,0,0,0-22.05,1.71,2.55,2.55,0,0,0-2.11,2A71.16,71.16,0,0,0,8.8,39.19a1.27,1.27,0,0,1-1,1.26c-1.47.52-2.9,1.14-4.37,1.64-.66.23-.73.52-.51,1.13.54,1.5,1,3,1.49,4.55.15.48.35.63.86.49.81-.23,1.63-.38,2.46-.54.25,0,.53-.18.67.24a3.37,3.37,0,0,1-1.1,3.4c-4.51,3.15-6.69,7.5-6.21,13C1.54,69.45,4.44,73,9.16,74.89A2.47,2.47,0,0,1,11,77.71,23.15,23.15,0,0,0,7.28,76.3c-.67-.18-1,0-1,.72a21.8,21.8,0,0,0,.1,3.11c.06.38.4,1-.18,1.14s-1.18.58-1.83-.15a2.35,2.35,0,0,0-3.15-.43A2.52,2.52,0,0,0,2.39,85.4,2.23,2.23,0,0,0,5,83.69c.26-.91.9-.6,1.41-.72s.67.38.82.78a20.1,20.1,0,0,0,1.36,2.93c.34.61.65.62,1.22.27a14.84,14.84,0,0,0,2.66-2.34,54.55,54.55,0,0,1,1.62,5.59c.57,3.14,2.6,4.58,5.4,5.52a63.81,63.81,0,0,0,13.81,2.85c.44,0,1-.08,1.09.64s.55,1.62,0,2a5.68,5.68,0,0,1-2.75,1.35A24.43,24.43,0,0,0,25,104.07a3.38,3.38,0,0,1-2.43.05,6.29,6.29,0,0,0-7,1.58c-2.21,2.57-2.6,5.15-1.16,7.93a1.18,1.18,0,0,1,0,1.21,90.57,90.57,0,0,0-9.19,37.78,3.65,3.65,0,0,1-.68,2.1,5.45,5.45,0,0,0-.83,5.12,1.84,1.84,0,0,1-.23,1.75,13.28,13.28,0,0,0-1.92,5.63c-.07.81-.31,1.75.46,2.35a3.61,3.61,0,0,0,3.72.57,1.08,1.08,0,0,0,.81-1.34,12.32,12.32,0,0,1,.18-4.41c.09-.35-.09-1,.59-.88s.24.71.22,1.1c0,0,0,.08,0,.12A13.06,13.06,0,0,0,8,171c.2.55.33,1.2,1,1.4a3.74,3.74,0,0,0,3.53-.5,1.22,1.22,0,0,0,.45-1.8,12.75,12.75,0,0,1-1.43-5.53c0-.31-.08-.62.25-.86,1.07-.77,1.85-.63,2.43.53a7.3,7.3,0,0,1,.83,2.11c.2,1.32.94,1.25,1.87,1a4.54,4.54,0,0,0,1.63-1,2.09,2.09,0,0,0,.54-2.86,7.9,7.9,0,0,0-2.19-2.66,1.08,1.08,0,0,1-.52-1.3A5.82,5.82,0,0,0,14.82,154c-.28-.32-.62-.6-.61-1.11,0-1.56,0-3.12,0-4.68,0-.22-.05-.49.3-.54a5.57,5.57,0,0,1,2.76,1.6,14.75,14.75,0,0,0,4.56,7.45,2.16,2.16,0,0,1,.74,1.31,56,56,0,0,1,.62,8.6,3,3,0,0,1-.87,2.22c-1.52,1.63-2.3,3.72-1.15,5.71.93,1.6.59,2.93.18,4.39s-1,3-1.37,4.46a1.06,1.06,0,0,1-1.15.91,19.61,19.61,0,0,0-3.2.43c-7.42,1.63-13,7.91-13.43,15,0,.81.06,1.19,1,1.31a140.55,140.55,0,0,0,33.27.06c1.22-.14,1.3-.62,1.18-1.58A16.36,16.36,0,0,0,34.14,191a2.94,2.94,0,0,1-.72-1.48c-.6-4.27-1.23-8.54-1.84-12.82a1.86,1.86,0,0,1,.17-1.37,4.93,4.93,0,0,0-.29-5.84A4.53,4.53,0,0,1,30.6,167c-.07-1.4-.08-2.8-.16-4.2,0-.67,0-.93.84-.66a26.72,26.72,0,0,0,16.27.48c.67-.19.73,0,.74.57,0,1.28,0,2.56.12,3.84a2.57,2.57,0,0,1-.75,2,5.3,5.3,0,0,0-.29,6.74,2.07,2.07,0,0,1,.41,1.66c-.44,3.25-1,6.47-1.67,9.68A6.19,6.19,0,0,1,44.63,190a16.55,16.55,0,0,0-4.11,10c0,.74.15,1,.89,1,1.39.09,2.78.32,4.17.44A145.07,145.07,0,0,0,75.63,201C76.5,200.94,76.68,200.63,76.6,199.85ZM73.88,87.36c.72,0,1.15.47,1.27,1.19a1.16,1.16,0,0,1-1.27,1.15,1,1,0,0,1-1.1-1A1.16,1.16,0,0,1,73.88,87.36ZM45.24,2.22a1.26,1.26,0,0,1,1.28-1.09,1.14,1.14,0,0,1,1.23,1.07,1.08,1.08,0,0,1-1.18,1.22A1.25,1.25,0,0,1,45.24,2.22ZM2.49,83.93A1.2,1.2,0,0,1,1.3,82.77a1.12,1.12,0,0,1,1.19-1.2,1.16,1.16,0,0,1,1.17,1.24C3.69,83.52,3.27,83.89,2.49,83.93Zm12.06,72.79a3.76,3.76,0,0,1,.11.5,5.85,5.85,0,0,1,.05,1.35,3.33,3.33,0,0,1-2,2.85,6,6,0,0,1-.92.43,4.83,4.83,0,0,1-2.89.2A3.18,3.18,0,0,1,7,161a3.08,3.08,0,0,1-1.42-2.65,4.89,4.89,0,0,1,0-.74,3.14,3.14,0,0,1,.86-1.94,4.11,4.11,0,0,1,3.42-1.86,4.54,4.54,0,0,1,1.64.29,4.82,4.82,0,0,1,.79.38,2.16,2.16,0,0,1,1.19.75A3.08,3.08,0,0,1,14.55,156.73ZM65.33,154a4.8,4.8,0,0,1,3.48-.6,4.39,4.39,0,0,1,.82.27,4.5,4.5,0,0,1,1.43,1,4.93,4.93,0,0,1,.58.73,3.17,3.17,0,0,1,.7,3.21c.08,1.09-.77,1.61-1.43,2.2a5.21,5.21,0,0,1-7.63-1.39l-.12-.27a2.29,2.29,0,0,1-.05-2A3.69,3.69,0,0,1,65.33,154ZM54.75,105.14a4.94,4.94,0,0,1,5.55,1.16,5.13,5.13,0,0,1,1.42,3.06,5.37,5.37,0,0,1-.12,1.45,4.06,4.06,0,0,1-2.54,2.9c-.39.16-.79.35-1-.2-.41-1.21-1.32-2.18-1.64-3.43-.74-1.21-1.48-2.41-2.21-3.62C53.86,105.83,54,105.45,54.75,105.14ZM67.42,83.31c1-.08,1.41,0,1.07,1a9,9,0,0,1-1.43,4.31c-.37.67-.73.73-1.28.18-1.11-1.12-1.23-1.68-.63-3.14C65.61,84.6,65.85,83.44,67.42,83.31Zm6.31-12a3,3,0,0,1-.21.55,6.52,6.52,0,0,1-1.17,2.68,6,6,0,0,1-1.72,1.54h0c-2.05,1.78-5.35,2.3-8.31,1.6A9.64,9.64,0,0,1,58.65,76a11.18,11.18,0,0,1-1.2-1.07,7.79,7.79,0,0,1-1-1.2,6.24,6.24,0,0,1-.88-2.14,6.64,6.64,0,0,1-.11-.82l-.07-.95a.3.3,0,0,1,0-.49,7.31,7.31,0,0,1,1.48-4.35A8.54,8.54,0,0,1,58,63.76a.88.88,0,0,1,.13-.21,2,2,0,0,1,.57-.42h0A9,9,0,0,1,66.33,61a8.85,8.85,0,0,1,2.85,1A8.9,8.9,0,0,1,73.73,71.3Zm0-16.43a5,5,0,0,0-.19.81c-.06.87-.55,1.07-1.3.87L68,55.4h0l-6.45-1.51A.66.66,0,0,1,61,53c.11-.58.24-1.15.36-1.73s.06-.88.28-1a.53.53,0,0,1,.19-.08,1.87,1.87,0,0,1,.94.16c3.41,1.24,6.85,2.37,10.28,3.54C73.55,54,74.15,54.1,73.71,54.87ZM7.82,46c-.5.12-1,.25-1.49.4s-.66-.06-.74-.48-.21-1-.31-1.51a1,1,0,0,1-.23-.6c0-.28.26-.46.7-.61Q12.08,41,18.41,38.78c.74-.26.91-.07.94.24s-.09.74.05,1h0a4.62,4.62,0,0,1,.41,1.74,4,4,0,0,0,.12.58c.15.5-.22.59-.59.69-2.35.61-4.68,1.33-7.09,1.72A32,32,0,0,1,7.82,46Zm4.24,36.57a4.67,4.67,0,0,1-2,2.09c-.54,0-.72-.44-.9-.83a10.61,10.61,0,0,1-.93-3.53c0-1.76.13-1.85,1.45-1.37A3.45,3.45,0,0,1,12.06,82.54ZM7.61,72.37a10,10,0,0,1-1.84-1.59A11.05,11.05,0,0,1,3.7,67.36,13.68,13.68,0,0,1,3,64.52a7.62,7.62,0,0,1,.17-2.92,9.74,9.74,0,0,1,.6-2.67,9.85,9.85,0,0,1,1.32-2.4,4.49,4.49,0,0,1,.83-1.19c.17-.17.34-.34.52-.5L7,54.38H7A5.56,5.56,0,0,1,8.63,53a5,5,0,0,1,.66-.3c4.65-2.69,11.16-1.77,15.51,2.2a11.79,11.79,0,0,1,4.3,8.86,7.87,7.87,0,0,1-.18,1.6l-.11.53a10.67,10.67,0,0,1-5.7,6.83h0a9.86,9.86,0,0,1-4.34,1.7l-.66.12A14,14,0,0,1,7.61,72.37ZM21.75,94.31a28.41,28.41,0,0,1-4.36-2,1.62,1.62,0,0,1-.86-.94,32.3,32.3,0,0,1-1.42-4.55h0A54.17,54.17,0,0,1,13,78.17c-.06-.19-.13-.38-.17-.57-.33-1.44-.08-1.74,1.36-1.57a17,17,0,0,0,10.56-2.52,20.29,20.29,0,0,0,4.47-4,13.56,13.56,0,0,0,1.73-6c0-4.55-2.3-8-5.69-10.7a16.28,16.28,0,0,0-11.82-3.63,6.15,6.15,0,0,0-1.64.29c-1,.35-1.36.11-1.22-.93,0-.2,0-.4,0-.6-.07-.5.06-.82.63-.93,3.14-.64,6.27-1.3,9.41-2a.82.82,0,0,1,.73-.16.79.79,0,0,0,.61-.3,1,1,0,0,0,.11-.69c-.28-2.62-.53-5.24-.78-7.86-.08-.84-.54-.58-1-.4l-7.83,3a2.19,2.19,0,0,1-1.2.29,66.41,66.41,0,0,1,1.81-9.74c.15-.58.32-1.15.5-1.73.92-3,1.82-3.72,5.05-3.72a8.8,8.8,0,0,0,1.76-.28,20,20,0,0,1,5.13-.8,49,49,0,0,1,5.71-.24,64.28,64.28,0,0,1,10.38.39A78.76,78.76,0,0,1,62.6,27.48c.33.13.65.3,1,.44a34.87,34.87,0,0,1,5,2.26q.48.27.95.57a17.7,17.7,0,0,1,1.79,1.31h0a1,1,0,0,1,.45.12.58.58,0,0,1,.27.38,7,7,0,0,1,.2,1.05,100.15,100.15,0,0,1-.63,17.08c-.09.71-.22.86-.94.57-3.3-1.29-6.64-2.5-9.95-3.77-.79-.3-1.15-.29-1.16.7a13.14,13.14,0,0,1-.1,1.43c-.06.48-.12,1-.17,1.43a17.62,17.62,0,0,1-.23,2.28c0,.25-.1.5-.17.75-.24.85,0,1.42,1,1.54A13.7,13.7,0,0,1,62,56.1l.69.18h.85l.14,0a.38.38,0,0,1,.21.21l.69,0h.24c1.67.33,3.34.68,5,1,.81.14.76.55.64,1,0,.15-.09.3-.11.44,0,.31-.08.63-.13.94-.1.63-.37.71-1,.45a11.25,11.25,0,0,0-15,6.28,8.6,8.6,0,0,0-.56,3.58,13.36,13.36,0,0,0,.29,2.18,11.38,11.38,0,0,0,2.72,4.23,11.58,11.58,0,0,0,7.42,3c.73.05,1.07.17.72,1a7.12,7.12,0,0,0-.27.72c-.08.24-.15.49-.23.73h0a69.93,69.93,0,0,1-3.66,8.52c-.49.91-1,1.8-1.6,2.66a9.94,9.94,0,0,1-.72,1,5.36,5.36,0,0,1-3,1.86,3.88,3.88,0,0,1-1.29.43c-.36.06-.72.11-1.08.18-3.49.26-7,.55-10.47.57-1.16,0-2.33,0-3.49-.08A69.88,69.88,0,0,1,21.75,94.31Zm10.87,10.8A3.52,3.52,0,0,1,34,103.22a1,1,0,0,1,.64-.22c.3.06.2.38.2.61,0,.88,0,1.75.06,2.63a.62.62,0,0,1,.66.36c.77,1.47,2.18,1.55,3.51,1.28l.48-.11a4.78,4.78,0,0,0,.91-.35,3.32,3.32,0,0,0,.78-.55,3,3,0,0,0,.79-1.32c0-.66,0-1.31,0-2,0-.34.13-.55.49-.25a3.42,3.42,0,0,1,.7,5.65c-2.37,2.25-7.56,2.21-9.87-.1a4.43,4.43,0,0,1-.48-.53,1.42,1.42,0,0,1-.27-.66A4.72,4.72,0,0,1,32.62,105.11Zm-13,.26a2.34,2.34,0,0,1,.59-.07c.75.05,1.67,0,2.09.61s-.36,1.12-.65,1.65-.69,1.25-1,1.87l-1.07,1.86-1,2.39c-.22.51-.54.55-1,.34a3.82,3.82,0,0,1-2.23-3.93C15.78,107.39,17.24,105.81,19.59,105.37Zm-4.64,36.19c0-.39.12-.79.18-1.18s0-.7,0-1.05v-.42c0-.85,0-1.7,0-2.55s.13-1.69.23-2.53q.07-.63.16-1.26c.18-1.26.39-2.51.6-3.77.17-1.05.35-2.1.56-3.15a26.18,26.18,0,0,1,.82-3.09,44.07,44.07,0,0,1,2.77-8.26q.6-1.32,1.3-2.61a28.8,28.8,0,0,1,2.92-5.21,1.35,1.35,0,0,1,.6-.56,38.62,38.62,0,0,1,5.26-1.5c.46-.11.38.26.36.54-.3,4,1.11,6,5.08,6.81a10.45,10.45,0,0,0,8.08-1.19c2.26-1.44,2.87-3,2.31-5.66a45.77,45.77,0,0,1,5.27.72.9.9,0,0,1,.74.5q.63,1.09,1.25,2.18a53,53,0,0,1,3.29,6.78A36,36,0,0,1,58.41,119c.48,1.32.91,2.66,1.33,4,0,.09.06.17.08.26a.48.48,0,0,1-.3.65h0c.58-.07.64.41.74.76.43,1.61.81,3.23,1.21,4.85q.31,1.31.56,2.62a43.79,43.79,0,0,1,.77,8,9.27,9.27,0,0,1,.41,3.3,1.05,1.05,0,0,1-.81,1.15A78.07,78.07,0,0,1,48.75,148a76.91,76.91,0,0,1-13.07,1.1c-6.18-.08-12.33-.59-18.14-3C14.76,144.9,14.57,144.6,14.95,141.56Zm15.84,48.68a7.94,7.94,0,0,1,1.47,1.49,14.41,14.41,0,0,1,1.68,3,6.24,6.24,0,0,1,.8,2.53c0,.29.08.59.12.89.11.85-.3,1.11-1.07,1.19-4.09.43-8.17.73-12.29.76a128.58,128.58,0,0,1-15.28-.78c-1.23-.14-1.34-.41-.76-2.06a7.08,7.08,0,0,1,.21-1.58,10.84,10.84,0,0,1,2.21-4.06,3.7,3.7,0,0,1,1.3-1.4,1,1,0,0,1,.69-.52v0a9.89,9.89,0,0,1,3.8-2.43,18.28,18.28,0,0,1,2.62-.74q.67-.14,1.34-.24t1.38-.14a14.34,14.34,0,0,1,7.73,1.54,6.9,6.9,0,0,1,2.66,1.34C29.88,189.44,30.33,189.84,30.79,190.23Zm-.23-18a3.65,3.65,0,0,1-.19,1.85,2.56,2.56,0,0,1-.57.85,3.91,3.91,0,0,1-1.38.84,4.28,4.28,0,0,1-5.09-1.36,2.06,2.06,0,0,1-.49-2.16,3.74,3.74,0,0,1,2.94-3.32,5.48,5.48,0,0,1,1.1-.13,3.57,3.57,0,0,1,1,.13,3,3,0,0,1,1.72,1.34C30.38,170.73,30.36,171.54,30.56,172.25Zm16.7-11.71c-8.07,2.44-15.5.84-22.4-3.76a2,2,0,0,1-.31-.27l-.29-.3a12.75,12.75,0,0,1-1.12-.87,14,14,0,0,1-2.71-3.23c-.23-.39-.58-.83-.82-1.25a2.08,2.08,0,0,1-.25-.61.7.7,0,0,1,.08-.53c.42-.64,1.57.14,2.38.31a69.68,69.68,0,0,0,18.27,1.17,97.88,97.88,0,0,0,18-2.77c.86-.21.93.16.75.76-.06.2-.08.42-.13.64a1.13,1.13,0,0,1-.29.58l-.26.25h0c-.44,2.41-2,4.12-3.74,5.63a4.17,4.17,0,0,0-.31.3,3.06,3.06,0,0,1-1,.83A11.9,11.9,0,0,1,48.84,160C48.32,160.2,47.79,160.37,47.26,160.54Zm1.39,10.62a3.32,3.32,0,0,1,.85-1.07h0a5.19,5.19,0,0,1,1.39-1,4.06,4.06,0,0,1,1-.33,3.66,3.66,0,0,1,.48-.06,3.43,3.43,0,0,1,1.4.2,4.26,4.26,0,0,1,2.45,2.63,3.15,3.15,0,0,1,.27,1.36,2.48,2.48,0,0,1-.45,1.31,3.79,3.79,0,0,1-2.59,2,3.88,3.88,0,0,1-.69.07,4.53,4.53,0,0,1-.73,0,5.54,5.54,0,0,1-.78-.17c-1.61-.48-2.93-1.3-2.89-3.54A3.19,3.19,0,0,1,48.64,171.15ZM72.26,199.3a3.72,3.72,0,0,0-.4,0c-1.46.23-2.92.39-4.39.48a117.19,117.19,0,0,1-19.86-.16,27.59,27.59,0,0,0-3.1-.26c-1.13,0-1.42-.47-1.13-1.48.09-.31.12-.63.18-.94a9.8,9.8,0,0,1,2-4.81A10.28,10.28,0,0,1,49,188.57,13.51,13.51,0,0,1,54.87,186a16.81,16.81,0,0,1,2.64-.28,14.94,14.94,0,0,1,10.76,3.77h0a26.35,26.35,0,0,1,2,2,7,7,0,0,1,1.21,1.89,12.37,12.37,0,0,1,1.45,5C73.17,199.22,72.7,199.29,72.26,199.3Z"/><path class="cls-3" d="M71.35,32.07l-.34,0a1.27,1.27,0,0,0-.88.49,2.65,2.65,0,0,1,.75,1.58,2.19,2.19,0,0,1,0,.61,28.13,28.13,0,0,0-.22,4.88c0,.44,0,1-.41,1.17s-.64-.25-.92-.43-.75-.48-1.14-.7C67,39,65.8,38.45,64.62,37.84a3,3,0,0,1,0,.33,1.29,1.29,0,0,1-.09.51.82.82,0,0,1-.12.2,1.09,1.09,0,0,1-.4.3,3.18,3.18,0,0,1-.66.21c-1.05.23-2.3.34-3.08,1.54-.34.52-1.48.55-2.27.75-1.12.29-2.48-.17-3.26,1.17-.19.33-.71.28-1.12.28H46.82a1.57,1.57,0,0,1-1.32-.42A4.78,4.78,0,0,0,42,41.21c-.4,0-.8,0-1.2,0s-.65-.06-.56-.43c.28-1.2-.66-1.23-1.37-1.48-.18-.07-.46,0-.56-.15-1-1.15-2.67-1.61-3.43-2.86-.9-1.49-2.19-2.85-2.39-4.72a6.72,6.72,0,0,0-.23-.92,67.06,67.06,0,0,0-9.84,1.45h0a2.6,2.6,0,0,0-.33,1.15,1.49,1.49,0,0,0,.15.66,2.06,2.06,0,0,0,.46.6,3.57,3.57,0,0,0,.35.29c.83.6.6,1.59,1,2.37a3.19,3.19,0,0,0,.94,1.44,1.16,1.16,0,0,1,.59,1,.88.88,0,0,0,0,.34c1.79.12,1.65,2.77,3.56,2.73.57,0,.65.42.73.9.13.75.29,1.52,1.33,1.52a.73.73,0,0,1,.57.37c.27,1,1,1.38,1.83,1.87a18.44,18.44,0,0,0,5.69,2.29c.19,0,.51.1.52.19.19,1.37,1.24,1,2,1a3.2,3.2,0,0,1,1.72.4,2.17,2.17,0,0,0,1.49.33c1.58-.23,2.88.77,4.35,1s3,.92,4.1-.69c.3-.42.81-.25,1.23-.27,1.54-.07,3.12.26,4.58-.48,0-.48.12-1,.17-1.43a13.14,13.14,0,0,0,.1-1.43c0-1,.37-1,1.16-.7,3.31,1.28,6.65,2.48,9.95,3.77.72.28.85.14.94-.57a100.15,100.15,0,0,0,.63-17.08,7,7,0,0,0-.2-1.05C71.54,32.82,71.37,32.56,71.35,32.07Z"/><path class="cls-4" d="M16.86,137c-.12-.06-.34-.11-.35-.19-.05-.26.18-.26.36-.29.07-.37-.19-.87.23-1.1s.76.13,1.06.37A29.2,29.2,0,0,0,32.6,142a40.05,40.05,0,0,0,12.91-.35c1.41-.25,2.81-.48,4.2-.84A27.82,27.82,0,0,0,60.08,136c.69-.54.89-.31.94.4,0,.26,0,.52,0,.78s0,.52,0,.78c.19,0,.39,0,.57,0a.79.79,0,0,1,.32.11.69.69,0,0,1,.28.53c.07.54-.13.83-.71.78v.25a2,2,0,0,0,1.31.51,43.71,43.71,0,0,0-.77-8q-.24-1.31-.56-2.62c-1.28-.51-2.49,0-3.71.27a1,1,0,0,0-.81.92c-.1,1.07-.77,1.14-1.53.79a4,4,0,0,0-1.87-.29c-.2,0-.46,0-.58.1-1.87,1.76-4.3,1.41-6.53,1.87a16,16,0,0,1-5.19.38c-2.15-.27-4.25.16-6.38.08-2.86-.11-5.65-.84-8.51-.79a1.45,1.45,0,0,1-1.32-.72c-.65-1.38-1.75-1-2.76-.72s-1.73.54-1.87-.86c0-.2-.23-.54-.38-.56-1.38-.13-2.36-1.54-3.87-1.19-.21,1.25-.42,2.51-.6,3.77q-.09.63-.16,1.26c-.1.84-.18,1.68-.23,2.53s-.07,1.69,0,2.55l1.49,0Zm-1.31,1.26c0-.07-.1-.13-.1-.19s.06-.12.09-.18.09.12.1.18S15.58,138.16,15.55,138.23Z"/><path class="cls-5" d="M21.47,45.05a.37.37,0,0,0,.19.24,1.22,1.22,0,0,1,.31.07c.13.06.16.17-.06.41q0,.12,0,.24c1.13.27,1.94.74,1.72,2.16-.09.61.38.8,1,.59.8-.28,1.23-.05,1.16.87,0,.47.06.95.68.89,1.45-.13,2.08.69,2.48,1.93a1.54,1.54,0,0,0,1.74,1,1.43,1.43,0,0,1,1.4.67c.62.87,1.81.66,2.61,1.22.18.13.58.06.66.21.74,1.35,2,1,3.16,1s1.94,1,3.08.78a.11.11,0,0,1,.09.07c.31,1.78,1.7.94,2.64,1,1.91.21,3.85-.25,5.76.64a3.43,3.43,0,0,0,3.12-.29,1.61,1.61,0,0,1,1.13-.32c1.62.3,3-.51,4.46-1a3.94,3.94,0,0,1,2.45-.13c1.14.38,1.33-.32,1.5-1.13L62,56.1a13.7,13.7,0,0,0-2.09-.48c-1.06-.12-1.26-.69-1-1.54.07-.25.13-.5.17-.75A17.62,17.62,0,0,0,59.32,51c-1.47.74-3,.41-4.58.48-.43,0-.94-.15-1.23.27-1.14,1.62-2.67.89-4.1.69s-2.78-1.2-4.35-1a2.17,2.17,0,0,1-1.49-.33,3.2,3.2,0,0,0-1.72-.4c-.81,0-1.86.38-2-1,0-.09-.34-.15-.52-.19a18.44,18.44,0,0,1-5.69-2.29c-.86-.49-1.55-.89-1.83-1.87a.73.73,0,0,0-.57-.37c-1,0-1.2-.78-1.33-1.52-.08-.48-.15-.91-.73-.9-1.92,0-1.77-2.6-3.56-2.73a.88.88,0,0,1,0-.34,1.16,1.16,0,0,0-.59-1A3.19,3.19,0,0,1,24,37.16c-.37-.77-.14-1.76-1-2.37a3.57,3.57,0,0,1-.35-.29,2.06,2.06,0,0,1-.46-.6,1.49,1.49,0,0,1-.15-.66,2.6,2.6,0,0,1,.33-1.15h0L18.75,33l-3.62,1c-.63.17-1,.19-.93-.62a25.52,25.52,0,0,1,1.47-7.08,1.38,1.38,0,0,1,1.17-.88c1.2-.28,2.4-.52,3.61-.78h0q0-.6,0-1.21a8.8,8.8,0,0,1-1.76.28c-3.23,0-4.13.67-5.05,3.72-.17.57-.34,1.15-.5,1.73a66.41,66.41,0,0,0-1.81,9.74,2.19,2.19,0,0,0,1.2-.29l7.83-3c.47-.18.93-.44,1,.4.25,2.62.5,5.24.78,7.86a1,1,0,0,1-.11.69.79.79,0,0,1-.61.3A.66.66,0,0,0,21.47,45.05Z"/><path class="cls-6" d="M27.42,52.95a16.09,16.09,0,0,1,4.51,7.3,11.64,11.64,0,0,1,0,6.91,4.94,4.94,0,0,0-.15.7,5.75,5.75,0,0,0-.05.71H33.4c.56,0,1.11,0,1.67,0a1.83,1.83,0,0,1,.7.1,1.35,1.35,0,0,1,.56.4c.19-.61.49-.89,1-.91a2.35,2.35,0,0,1,.59.07c.3.07.6.12.9.16.91.12,1.83.16,2.74.25a1.8,1.8,0,0,1,.22-.7.72.72,0,0,1,.67-.3c.35,0,.72,0,.93.33s-.2.59-.37.86A5.77,5.77,0,0,0,45,69c.71,0,1.2.25,1.33.79a1.71,1.71,0,0,1,0,.66l.19,0c.18-.06.31-.18.28-.39-.21-1.3.6-1.29,1.51-1.26a15.89,15.89,0,0,1,3.54.25h0A6.4,6.4,0,0,1,53,65c.24-.39.5-.77.76-1.14a13.41,13.41,0,0,1,12-5.9,26.3,26.3,0,0,1,4.64,1c0-.14.07-.29.11-.44.12-.44.17-.85-.64-1-1.68-.29-3.34-.65-5-1-.09.18-.17.15-.24,0l-.69,0c-.39.42-.45.1-.51-.23h-.7c-.18.81-.36,1.51-1.5,1.13a3.94,3.94,0,0,0-2.45.13c-1.45.45-2.84,1.25-4.46,1a1.61,1.61,0,0,0-1.13.32,3.43,3.43,0,0,1-3.12.29c-1.91-.89-3.85-.43-5.76-.64-.94-.1-2.33.74-2.64-1a.11.11,0,0,0-.09-.07c-1.14.17-2-.73-3.08-.78s-2.42.31-3.16-1c-.08-.14-.47-.08-.66-.21-.8-.57-2-.35-2.61-1.22a1.43,1.43,0,0,0-1.4-.67,1.54,1.54,0,0,1-1.74-1c-.4-1.24-1-2.06-2.48-1.93-.61.06-.71-.43-.68-.89.07-.92-.35-1.16-1.16-.87-.59.21-1.07,0-1-.59.22-1.42-.58-1.89-1.72-2.16l-1.2-.24-.09.3c-.21-.17,0-.22.09-.31V45c-3.14.66-6.27,1.32-9.41,2-.57.12-.7.43-.63.93,1.11-.08,2.22-.2,3.33-.22A19,19,0,0,1,27.42,52.95ZM45.71,67.22c.2-.54.63-.26,1-.18-.27.32-.44.79-.95.6C45.71,67.62,45.66,67.34,45.71,67.22Zm-.7,1s.06.12.08.19h0l-.11.05a.12.12,0,0,1-.09,0s-.06-.12-.08-.19S45,68.18,45,68.2Z"/><path class="cls-4" d="M15.23,86.79c.14-.13.18-.35.29-.51a.4.4,0,0,1,.4-.19v-1a1.63,1.63,0,0,1-.54-.42.82.82,0,0,1,.06-1,3.53,3.53,0,0,0-.26-1.39c-.09-.33-.4-.69,0-1s.63.12.94.25a13,13,0,0,1,1.22.62,4,4,0,0,0,1.71.57,2.53,2.53,0,0,0,.48,0,3.4,3.4,0,0,1-.22-1.12c0-.4.39-.48,1.25-.58,2.76-.32,2.76-.32,2.86,2.49a9.29,9.29,0,0,0,.19,1.16h1.73c0-.38,0-.76,0-1.14s0-.76,0-1.14c-.09-.93.26-1.24,1.15-1,.58.13,1.18.21,1.76.32,1.67.3,1.67.3,1.69,2,0,.32,0,.64,0,1A1.6,1.6,0,0,0,30.47,86a6.12,6.12,0,0,0,2.15.57c0-1.64.09-3.27.09-4.91,0-.63.15-.83.84-.67a30.36,30.36,0,0,0,3.52.55c.87.09.83.58.78,1.25a36.56,36.56,0,0,0-.36,4.48h2.42a7,7,0,0,0,.16-1c.11-1,.08-2,.1-3,0-.72.26-1,1-.9a21.81,21.81,0,0,0,2.84.34c.77,0,1,.34.88,1-.14,1.26-.23,2.53-.34,3.8H47.1c.11-.72.23-1.45.35-2.17s.23-1.45.32-2.17.36-.69.9-.6c.9.16,1.81.27,2.72.38,1.06.12,1.38.57.9,1.56a8.29,8.29,0,0,0-.6,3.72h1.65c.16-1.43.27-1.91.36-2.4a14.13,14.13,0,0,0,.17-1.46c.05-.78.31-1.21,1.23-.93,2.47.76,2.1-.14,2,3.11a14.41,14.41,0,0,0,3.07-.28c.85-.05,1.06.26.72.89-1.17,2.15-2.12,4.43-3.78,6.28A10.22,10.22,0,0,0,55.47,96a5.36,5.36,0,0,0,3-1.86,9.94,9.94,0,0,0,.72-1c.58-.86,1.11-1.75,1.6-2.66A69.93,69.93,0,0,0,64.41,82h0a2.27,2.27,0,0,0-1.3-.33l-.44,0a7.12,7.12,0,0,1-2.12-.5,35.64,35.64,0,0,0-3.35-1.33l-.42,0a2.39,2.39,0,0,0-.42,0c-.3,0-.47-.62-.79-.18s.23.62.31,1.12c-2-1.2-4.12-.57-6.16-.66s-4.16,0-6.24,0c-.81,0-1.61.07-2.13-.75a.7.7,0,0,0-.53-.24c-1.79,0-3.38-1-5.16-.92-1.34.08-2.42-.69-3.64-1-1-.26-2-.79-3.05-1-.19,0-.49-.1-.53-.22-.34-1-1.27-.91-2-1.2-1.16.59-2.3,1.22-3.47,1.76a15.28,15.28,0,0,1-3.69,1.23,22.86,22.86,0,0,1-6.24.39,54.17,54.17,0,0,0,2.06,8.69h0A.36.36,0,0,0,15.23,86.79Z"/><path class="cls-7" d="M57.13,93.46c1.66-1.86,2.61-4.13,3.78-6.28.34-.63.13-.95-.72-.89a14.41,14.41,0,0,1-3.07.28,8.66,8.66,0,0,0-.18,2.94c0,.73-.29,1-1,.92h-.24c-2.77,0-2.77,0-2.39-2.66a3.87,3.87,0,0,0,0-.51H51.68c-.25,1.35-.55,2.66-.74,4-.13.93-.42,1.36-1.48,1.34-3.05-.07-3.07,0-2.54-3a9.24,9.24,0,0,0,.17-2H44.56c-.11,1.55-.26,3.1-.33,4.65,0,.65-.21,1-.91.9q-1.54-.16-3.09-.25c-.6,0-.57-.45-.56-.85.06-1.55.35-3.09.24-3.7H37.49c-.33.39-.41,1.78-.48,3.16-.1,1.95-.31,2.12-2.19,1.74-2.35-.47-2.31-.47-2.36-2.93,0-1.23.42-2.44.15-3.67h0A6.12,6.12,0,0,1,30.47,86a1.6,1.6,0,0,1-.58-1.35c-.2,2.1.1,4.2.09,6.3,0,.51,0,.65-.56.51q-1.61-.44-3.25-.8c-.56-.12-.65-.49-.65-1a34.08,34.08,0,0,0-.24-5H23.55c0,.76,0,1.51,0,2.27s-.12,1.28-1.05.92a1.46,1.46,0,0,0-.35-.07c-2.3-.26-2.29-.26-2.43-2.59-.05-.83-.17-1.65-.26-2.48a2.53,2.53,0,0,1-.48,0,4,4,0,0,1-1.71-.57,13,13,0,0,0-1.22-.62c-.31-.13-.57-.55-.94-.25s-.05.66,0,1a3.53,3.53,0,0,1,.26,1.39,1.09,1.09,0,0,1,.48,1.44v1c.91.61,1,1.69,1.14,2.57a5.69,5.69,0,0,0,3.75,4.2,64.47,64.47,0,0,0,9.54,2.46c1.78.36,3.62.42,5.43.61a52.67,52.67,0,0,0,7.51.23c2.94-.1,5.87-.29,8.8-.48.86-.06,1.64-.85,2.68-.22A2.63,2.63,0,0,0,53.1,96.6c.36-.07.72-.12,1.08-.18A3.88,3.88,0,0,0,55.47,96,10.22,10.22,0,0,1,57.13,93.46Z"/><path class="cls-8" d="M20,130c.15,0,.36.35.38.56.13,1.4.9,1.16,1.87.86s2.1-.66,2.76.72a1.45,1.45,0,0,0,1.32.72c2.87-.05,5.66.68,8.51.79,2.13.08,4.23-.35,6.38-.08a16,16,0,0,0,5.19-.38c2.24-.46,4.67-.11,6.53-1.87.12-.11.38-.1.58-.1a4,4,0,0,1,1.87.29c.76.35,1.43.28,1.53-.79a1,1,0,0,1,.81-.92c1.22-.28,2.43-.78,3.71-.27-.4-1.62-.79-3.24-1.21-4.85-.09-.35-.16-.83-.74-.76h0a.51.51,0,0,1-.18.11c-.23.07-.3-.25-.43-.42a.23.23,0,0,0-.16-.11.26.26,0,0,0-.15,0c.16.84.31,1.69.48,2.53.24,1.19.21,1.2-1,.85a14.33,14.33,0,0,1-1.5-.58,4.91,4.91,0,0,0-1.55-.41c0,1-.06,1.58-.37,1.83s-.85.19-1.83,0a4,4,0,0,0-3.32.9,1.78,1.78,0,0,1-2.69-.09h0v0c0,.2,0,.39,0,.59.14,1.49-.17,1.75-1.66,1.36l-.54.66a5.77,5.77,0,0,1,.26.55.45.45,0,0,1-.11.52c-.5.45-.89-.2-1.35-.31-1,.65-2.12.43-3.17.7a8.43,8.43,0,0,1-5.65-.59,7.5,7.5,0,0,1-4.07-4.46c-.12-.38-.21-.77-.32-1.15a.94.94,0,0,1-.66-.21.93.93,0,0,1-.14-.15,1.5,1.5,0,0,1-.2-.37,4.12,4.12,0,0,1-.13-.42,4.27,4.27,0,0,0-.27-1l-.71,0a1.75,1.75,0,0,1-.08.58.5.5,0,0,1-.46.32c-.48,0-.4-.37-.43-.66-2.59.44-5.14,1-7.67,1.71-1.18.31-1.23.28-1-.92.15-.9.22-1.81.32-2.72H17.55a26.15,26.15,0,0,0-.82,3.09c-.22,1-.39,2.09-.56,3.15C17.67,128.45,18.65,129.87,20,130Z"/><path class="cls-4" d="M25,155.92c0-.46-.38-.62-.68-.85a.66.66,0,0,1-.31-.58c-.17,0-.38,0-.35-.31a.11.11,0,0,1,.08-.07c.26,0,.27.18.31.35h0a9.81,9.81,0,0,1,2.5.73,23.58,23.58,0,0,0,2.44.92,39,39,0,0,0,14.87,1.29c.8-.09,1.58-.21,2.36-.36a57.32,57.32,0,0,0,6.85-1.87c0-.4.28-.49.59-.6l.34-.12c-.13.69-.43.93-.91,1l0,.23c.31.58,0,1.16,0,1.74a3.05,3.05,0,0,0,1-.83,4.17,4.17,0,0,1,.31-.3c1.76-1.51,3.3-3.22,3.74-5.63-2.38.21-4.65,1-7,1.31-3.26.44-6.52.87-9.81,1.1s-6.46.28-9.68.19a79.24,79.24,0,0,1-7.93-.78c-1.09-.14-2.16-.74-3.32-.38a14,14,0,0,0,2.71,3.23,12.75,12.75,0,0,0,1.12.87h0Z"/><path class="cls-9" d="M28.62,191.2c-.63,1-1.74,1-2.7,1.18-5.35,1-10.77.68-16.16.75-1.08,0-1.81-.29-1.88-1.49a10.83,10.83,0,0,0-2.21,4.06,7.08,7.08,0,0,0-.21,1.58,4.64,4.64,0,0,1,.3-.38,1.75,1.75,0,0,1,.34-.3,1.05,1.05,0,0,1,.41-.16h.24l.27,0c0-.16,0-.31,0-.43.05-.37.13-.59.29-.67s.53,0,1.11.26a14.68,14.68,0,0,0,5.28,1.27c4.34.19,8.68.2,12.9-1.13,1.78-.56,3.43-1.25,4.34-3.1a6.26,6.26,0,0,1,1.49,2.83,1.28,1.28,0,0,0,1.47-.76,14.4,14.4,0,0,0-1.68-3,7.94,7.94,0,0,0-1.47-1.49A1.6,1.6,0,0,1,28.62,191.2Z"/><path class="cls-10" d="M49.15,148a78.07,78.07,0,0,0,13.64-3.46,1.05,1.05,0,0,0,.81-1.15,9.24,9.24,0,0,0-.41-3.3,2,2,0,0,1-1.31-.51,4,4,0,0,0-.09,2.67c.13.58.09.92-.58,1.19a67.65,67.65,0,0,1-9.84,2.75c-.67.15-1,0-1.12-.62-.23-1.24-1.13-1.29-2.1-1.18s-1.25.83-1.14,1.73c.08.67-.23.83-.87.92a61.29,61.29,0,0,1-11.17.74c-5.28-.23-10.55-.82-15.5-2.88-2.45-1-2.46-1-2.46-3.65q0-1.2,0-2.4l-1.49,0v.42a.62.62,0,0,1,0,1.05c-.06.39-.13.79-.18,1.18-.38,3-.19,3.35,2.59,4.52,5.81,2.46,12,3,18.14,3A76.91,76.91,0,0,0,49.15,148Z"/><path class="cls-6" d="M67.9,193.82a28.23,28.23,0,0,0,3.54-.46,7,7,0,0,0-1.21-1.89,26.35,26.35,0,0,0-2-2h0a.44.44,0,0,0-.39.2,3.65,3.65,0,0,0-.19.41,1.11,1.11,0,0,1-.37.5c-.15.08-.34,0-.55-.36a39.43,39.43,0,0,0-6.15-.68c-2.06-.09-4.12-.07-6.19-.06a18.67,18.67,0,0,0-3.3.39,1.79,1.79,0,0,1-1.27,0c0-.45.53-.47.59-.83s-.17-.48-.52-.34-.66.2-.92-.13a10.28,10.28,0,0,0-3.47,3.58c2.47.46,5,.22,7.48.81C57.93,194.11,62.93,193.86,67.9,193.82Z"/><path class="cls-8" d="M44.32,195.67c.09,1.16.62.94,1.1.82a7.56,7.56,0,0,1,1-2.77c.31-.54.65-1.23,1.3-.17a5.51,5.51,0,0,0,3.46,2.19,35.22,35.22,0,0,0,10.36,1.44,24,24,0,0,0,8.38-1.51c.76-.31,1.07.06,1.15.71a16.29,16.29,0,0,1,0,1.8,4.42,4.42,0,0,0,1.78.23,12.35,12.35,0,0,0-1.45-5,28.23,28.23,0,0,1-3.54.46c-5,0-10,.29-14.87-.86-2.47-.58-5-.35-7.48-.81a9.8,9.8,0,0,0-2,4.81C44.29,197,44.19,196.47,44.32,195.67Z"/><path class="cls-11" d="M23.73,152.48a79.24,79.24,0,0,0,7.93.78c3.23.09,6.45,0,9.68-.19s6.55-.67,9.81-1.1c2.36-.31,4.63-1.1,7-1.31h0l.26-.25a1.13,1.13,0,0,0,.29-.58c0-.21.07-.43.13-.64.18-.59.11-1-.75-.76a97.88,97.88,0,0,1-18,2.77A69.68,69.68,0,0,1,21.81,150c-.82-.17-2-1-2.38-.31a.7.7,0,0,0-.08.53,2.09,2.09,0,0,0,.25.61c.24.42.59.86.82,1.25C21.57,151.74,22.64,152.34,23.73,152.48Z"/><path class="cls-5" d="M22.62,112.48l.47-.48c.3-.66.58-1.33.9-2a10.35,10.35,0,0,1,.7-1.25,5.76,5.76,0,0,1,1.52-1.57l-.18-.26.09-.06.1.32h0l.3-.28a1.71,1.71,0,0,1,.32-.25c1.34-.75,1.65-.68,1.87.78.45,3,3.89,5,6.18,5.54a18.61,18.61,0,0,0,6.13.24c3.1-.28,6.54-3,7.24-6,.15-.63.3-.62.91-.63,1.67,0,2.45.89,3,2.24A28.93,28.93,0,0,1,54.07,113h0c.58.27.71.83.91,1.34a1.76,1.76,0,0,0,.53.82c.42-.86.84,0,1.26,0a53,53,0,0,0-3.29-6.78q-.62-1.1-1.25-2.18a.9.9,0,0,0-.74-.5,45.77,45.77,0,0,0-5.27-.72c.56,2.66,0,4.22-2.31,5.66a10.45,10.45,0,0,1-8.08,1.19c-4-.85-5.38-2.81-5.08-6.81,0-.27.11-.65-.36-.54a38.62,38.62,0,0,0-5.26,1.5,1.35,1.35,0,0,0-.6.56,28.8,28.8,0,0,0-2.92,5.21l.77,1Z"/><rect class="cls-6" x="28.14" y="190.49"/><path class="cls-6" d="M8.06,191.64c.06,1.19.78,1.49,1.85,1.47,5.32-.07,10.66.28,15.93-.74.95-.18,2-.17,2.66-1.16-.06-.13-.28-.11-.4-.19a.17.17,0,0,1-.09-.15.42.42,0,0,1,0-.13v-.24l-2-.13c-2-.14-4-.29-6-.3-2.21,0-4.43.27-6.64.46-.33,0-.62.31-1,.39s-.76.2-1-.11.26-.5.33-.79a.88.88,0,0,0-.6-.34,1.79,1.79,0,0,0-.44,0l-.44.06H10v0c0,.52-.33.51-.68.52A3.64,3.64,0,0,0,8.06,191.64Z"/><path class="cls-10" d="M30.36,69.52a.43.43,0,0,1,.44-.23c.51,0,.52-.62.93-.72a5.75,5.75,0,0,1,.05-.71,4.94,4.94,0,0,1,.15-.7,11.64,11.64,0,0,0,0-6.91,16.09,16.09,0,0,0-4.51-7.3A19,19,0,0,0,14,47.69c-1.11,0-2.22.15-3.33.22,0,.2,0,.4,0,.6-.14,1,.26,1.28,1.22.93a6.15,6.15,0,0,1,1.64-.29A16.28,16.28,0,0,1,25.3,52.77c3.4,2.74,5.67,6.15,5.69,10.7a13.56,13.56,0,0,1-1.73,6l1,.51A1.15,1.15,0,0,1,30.36,69.52Z"/><path class="cls-10" d="M42.63,97.18c3.49,0,7-.32,10.47-.57a2.63,2.63,0,0,1,1.68-1.16c-1-.62-1.83.17-2.68.22-2.93.19-5.87.38-8.8.48a52.67,52.67,0,0,1-7.51-.23c-1.81-.2-3.65-.26-5.43-.61a64.47,64.47,0,0,1-9.54-2.46,5.69,5.69,0,0,1-3.75-4.2c-.19-.88-.23-2-1.14-2.57a.4.4,0,0,0-.4.19c-.11.16-.15.38-.29.51a.36.36,0,0,1-.12.08h0a32.3,32.3,0,0,0,1.42,4.55,1.62,1.62,0,0,0,.86.94,28.41,28.41,0,0,0,4.36,2A69.88,69.88,0,0,0,39.13,97.1C40.3,97.16,41.47,97.18,42.63,97.18Z"/><path class="cls-4" d="M32.47,195.52c.06.23.13.46.17.69.34,1.75,0,2-1.74,2.22-5.56.7-11.14.44-16.71.43-2,0-3.95-.33-5.93-.48-1.28-.09-1.36-.92-1.26-1.9H7l-.27,0H6.51a1.05,1.05,0,0,0-.41.16,1.75,1.75,0,0,0-.34.3,4.64,4.64,0,0,0-.3.38c-.58,1.66-.47,1.93.76,2.06a128.58,128.58,0,0,0,15.28.78c4.11,0,8.2-.33,12.29-.76.77-.08,1.19-.34,1.07-1.19,0-.3-.08-.59-.12-.89a6.23,6.23,0,0,0-.81-2.53A1.28,1.28,0,0,1,32.47,195.52Z"/><path class="cls-10" d="M18.12,74.52l.66-.12a9.86,9.86,0,0,0,4.34-1.7h0c0-.07,0-.14,0-.22a.42.42,0,0,0-.1-.22.13.13,0,0,0-.12,0,1,1,0,0,1-.87-.11,1,1,0,0,1-.27-.67c0-.17,0-.34-.05-.51l-.5,0c0,.15-.1.22-.19.24a.65.65,0,0,1-.31,0,1.46,1.46,0,0,1-1.29,1l-.66.11-.31.07c-3.8,1.11-7.24.47-10.1-2.42a10.34,10.34,0,0,1-2-3.08c-.77.74-1.77.23-2.63.49a11.05,11.05,0,0,0,2.07,3.42,10,10,0,0,0,1.84,1.59A14,14,0,0,0,18.12,74.52Z"/><path class="cls-10" d="M65.76,58a13.41,13.41,0,0,0-12,5.9c-.26.37-.52.75-.76,1.14a6.4,6.4,0,0,0-1.13,4h0c.08.7,0,1.41,0,2.12a3.12,3.12,0,0,0,.27,1.25c.64-.5,1.27.15,1.91,0a13.36,13.36,0,0,1-.29-2.18,8.6,8.6,0,0,1,.56-3.58,11.25,11.25,0,0,1,15-6.28c.61.26.88.18,1-.45.05-.31.08-.63.13-.94A26.3,26.3,0,0,0,65.76,58Z"/><path class="cls-10" d="M53.11,157.43c0-.58.3-1.16,0-1.74-1.06.69-2.08,1.44-3.18,2.06a21.45,21.45,0,0,1-14.31,2.16,25.34,25.34,0,0,1-9.24-3.53,2.16,2.16,0,0,0-1.34-.45l-.78.28h0l.29.3a2,2,0,0,0,.31.27c6.9,4.6,14.33,6.2,22.4,3.76.53-.16,1.07-.34,1.59-.53A11.9,11.9,0,0,0,53.11,157.43Z"/><path class="cls-12" d="M31.79,22.73a1.27,1.27,0,0,1,.56.17l.05,0a.56.56,0,0,1,.06.52,1.13,1.13,0,0,0,.79.27h.21l.41,0h.2a81.86,81.86,0,0,1,23.38,3.39c1.78.52,3.5,1.26,5.25,1.89-.1-.66.42-.81.86-1-.32-.15-.64-.32-1-.44a78.76,78.76,0,0,0-20.92-4.71,64.28,64.28,0,0,0-10.38-.39C31.34,22.62,31.56,22.69,31.79,22.73Zm2.48,0c.06,0,.12.06.18.1l-.19.1-.17-.11C34.14,22.81,34.2,22.75,34.26,22.75Z"/><path class="cls-11" d="M34.06,108c-.49-.1-.89-.49-1.39-.35a1.42,1.42,0,0,0,.27.66,4.42,4.42,0,0,0,.48.53c2.31,2.3,7.5,2.35,9.87.1a3.42,3.42,0,0,0-.7-5.65c-.23.73.37,1.66-.54,2.22a3,3,0,0,1-.79,1.32,3.32,3.32,0,0,1-.78.55,4.78,4.78,0,0,1-.91.35l-.48.11c-1.32.26-2.74.18-3.51-1.28a.62.62,0,0,0-.66-.36C33.79,106,33.79,106,34.06,108Z"/><path class="cls-7" d="M19.29,77.78A15.28,15.28,0,0,0,23,76.55c1.18-.54,2.32-1.17,3.47-1.76a9.25,9.25,0,0,1,1.4-1.35,7.68,7.68,0,0,0,1.37-1.38A4.48,4.48,0,0,0,30.31,70h0a.77.77,0,0,0,.49-.72.43.43,0,0,0-.44.23,1.15,1.15,0,0,0-.06.49l-1-.51a20.29,20.29,0,0,1-4.47,4A17,17,0,0,1,14.23,76c-1.44-.16-1.69.14-1.36,1.57,0,.19.12.38.17.57A22.86,22.86,0,0,0,19.29,77.78Z"/><path class="cls-4" d="M72.89,198.39a4.42,4.42,0,0,1-1.78-.23,83.22,83.22,0,0,1-9.26.77,45.46,45.46,0,0,1-5.13.16c-3.29-.25-6.59-.23-9.87-.63-1.49-.18-1.54-.91-1.44-2-.49.12-1,.34-1.1-.82-.13.8,0,1.38-.77,1.29-.06.31-.09.64-.18.94-.29,1,0,1.49,1.13,1.48a27.59,27.59,0,0,1,3.1.26,117.19,117.19,0,0,0,19.86.16c1.47-.09,2.94-.26,4.39-.48a3.72,3.72,0,0,1,.4,0C72.7,199.29,73.17,199.22,72.89,198.39Z"/><path class="cls-7" d="M52.14,72.4c-.1.63.44,1.08.47,1.68a8.8,8.8,0,0,0,1,2,16.11,16.11,0,0,0,2.53,2.76,5.62,5.62,0,0,1,1,1,35.64,35.64,0,0,1,3.35,1.33,7.12,7.12,0,0,0,2.12.5l.44,0a2.27,2.27,0,0,1,1.3.33h0c.08-.24.16-.49.23-.73a7.12,7.12,0,0,1,.27-.72c.36-.79,0-.91-.72-1a11.58,11.58,0,0,1-7.42-3,11.38,11.38,0,0,1-2.72-4.23C53.42,72.56,52.78,71.91,52.14,72.4Z"/><path class="cls-10" d="M56.45,110.09c1.23-.31,2.49.21,3.76-.18.52-.16,1-.34,1.51-.55a5.13,5.13,0,0,0-1.42-3.06,4.94,4.94,0,0,0-5.55-1.16c-.77.31-.89.69-.51,1.33C55,107.68,55.71,108.88,56.45,110.09Z"/><path class="cls-3" d="M20.46,24.63a.61.61,0,0,1,.29.1l0,0a.56.56,0,0,1,.16.39c0,.09,0,.18,0,.27a2,2,0,0,0,1.8,2.05,2.6,2.6,0,0,0,2.88-1.21,1.45,1.45,0,0,0-.23-1.57c-.52-.69-.15-.73.46-.79,2.2-.24,4.43-.09,6.62-.46a.56.56,0,0,0-.06-.52l-.05,0a1.27,1.27,0,0,0-.56-.17c-.23,0-.44-.1-.5-.34a49,49,0,0,0-5.71.24,20,20,0,0,0-5.13.8q0,.6,0,1.21Z"/><path class="cls-10" d="M20.58,109.43c.36-.62.71-1.24,1-1.87s1.05-1.08.65-1.65-1.34-.56-2.09-.61a2.34,2.34,0,0,0-.59.07c-2.35.44-3.81,2-4.37,4.71a26.54,26.54,0,0,0,4.29,1.21Z"/><path class="cls-11" d="M64.59,157.51c-.46-.2-.41-.8-.56-1.3-.48.22-.39.88-.92.9a2.29,2.29,0,0,0,0,2l.12.27a5.21,5.21,0,0,0,7.63,1.39c.65-.59,1.51-1.11,1.43-2.2-1.11-.09-2.16.3-3.29.26A12.13,12.13,0,0,1,64.59,157.51Z"/><path class="cls-13" d="M13,52a15.51,15.51,0,0,1,7.46,1.52,24.62,24.62,0,0,1,2.29,1.2,2.88,2.88,0,0,1,.6.47,2.83,2.83,0,0,1,.46.63c.6.5,1.2,1,1.75,1.56a11.5,11.5,0,0,1,1.51,1.8,2,2,0,0,1,.37,1.2,6.61,6.61,0,0,1,1.17,4.1c.1.46-.16,1,.21,1.39l.11-.53a7.87,7.87,0,0,0,.18-1.6,11.79,11.79,0,0,0-4.3-8.86c-4.35-4-10.86-4.89-15.51-2.2a7.15,7.15,0,0,0,.94-.08C11.17,52.47,12.08,52.19,13,52Z"/><path class="cls-3" d="M49.94,188.7c.35-.14.49,0,.52.34a15.83,15.83,0,0,1,12-1.39,17.72,17.72,0,0,1,4.15,2.06c.16.09.46.25.19.55.21.38.4.44.55.36a1.11,1.11,0,0,0,.37-.5,3.65,3.65,0,0,1,.19-.41.44.44,0,0,1,.39-.2h0a14.94,14.94,0,0,0-10.76-3.77,16.81,16.81,0,0,0-2.64.28A13.51,13.51,0,0,0,49,188.57C49.28,188.9,49.62,188.83,49.94,188.7Z"/><path class="cls-3" d="M10.09,189.73l.45-.06a1.82,1.82,0,0,1,.44,0,.89.89,0,0,1,.61.34,1.93,1.93,0,0,0,1.26-.42l.38-.22a14.14,14.14,0,0,1,10.38-1.23,3.83,3.83,0,0,0,1.17.19c.42-.33.79-.44,1,.24.63.08,1-.11,1-.84A14.33,14.33,0,0,0,19,186.19q-.69,0-1.38.14t-1.34.24a18.28,18.28,0,0,0-2.62.74,9.88,9.88,0,0,0-3.8,2.43Z"/><path class="cls-5" d="M17.13,40.35l-.76.25c-.59.2-1.18.41-1.78.56-.81.2-1.59.52-2.38.77-.38.12-.8.17-.87.68,0,.83,1.26,1.11.92,2.1,2.41-.39,4.73-1.1,7.09-1.71.37-.1.74-.19.59-.69a4,4,0,0,1-.12-.58A4.62,4.62,0,0,0,19.41,40h0A6.93,6.93,0,0,0,17.13,40.35Z"/><path class="cls-4" d="M29,64.49a2.15,2.15,0,0,0-1.73,1,.63.63,0,0,1-.5.37,1.83,1.83,0,0,1-.32,0h-.33a8.66,8.66,0,0,1-.72,1.45A10.89,10.89,0,0,1,22,70.68V71c0,.17,0,.35.05.51a1,1,0,0,0,.27.67,1,1,0,0,0,.87.11.13.13,0,0,1,.12,0,.42.42,0,0,1,.1.22c0,.07,0,.15,0,.22h0a10.67,10.67,0,0,0,5.7-6.83C28.81,65.46,29.06,64.95,29,64.49Z"/><path class="cls-10" d="M69.33,75.3a.77.77,0,0,0-.39.14c-.17.13-.26.12-.32.06a2.58,2.58,0,0,1-.16-.25H68a.31.31,0,0,1-.2.21.56.56,0,0,1-.3,0,.35.35,0,0,1-.19.43l-.15.08a6.18,6.18,0,0,1-4.77.3c-4.85-1.77-5.08-4.32-4.91-7l-.2,0c.16,1.48-.75,1.4-1.74,1.2a6.64,6.64,0,0,0,.11.82,6.24,6.24,0,0,0,.88,2.14,7.79,7.79,0,0,0,1,1.2,11.18,11.18,0,0,0,1.2,1.07,9.64,9.64,0,0,0,3.68,1.71c3,.7,6.25.18,8.31-1.6h0A1.61,1.61,0,0,0,69.33,75.3Z"/><polygon class="cls-10" points="68.46 75.52 68.46 75.52 68.46 75.52 68.46 75.52"/><path class="cls-10" d="M69.68,156.64c-1.11-.08-2.36.37-3.21-.7a15.3,15.3,0,0,1-1.14-2,3.69,3.69,0,0,0-2.22,3.14c.52,0,.44-.69.92-.9.16.5.1,1.1.56,1.3a12.13,12.13,0,0,0,4.46,1.34c1.13,0,2.18-.36,3.29-.26a3.17,3.17,0,0,0-.7-3.21A1.67,1.67,0,0,1,69.68,156.64Z"/><path class="cls-13" d="M69.18,62.05a8.85,8.85,0,0,0-2.85-1,9,9,0,0,0-7.63,2.08h0a2,2,0,0,0-.57.42.89.89,0,0,0-.13.21l.37,0,.51-.49.93-.31.73-.24a5.58,5.58,0,0,1,2.13-.65,6.91,6.91,0,0,1,.75,0c2.56-.25,4.7.82,6.75,2.17l.25.17a1,1,0,0,1,.45.74,6.65,6.65,0,0,1,2,2.79,10,10,0,0,1,.36,1.11,19.32,19.32,0,0,1,.3,2.07,6.86,6.86,0,0,1,0,.7,3,3,0,0,0,.21-.55A8.9,8.9,0,0,0,69.18,62.05Z"/><path class="cls-7" d="M13.5,155.2c-.1,1.54-1.14,2.35-2.37,3a5.89,5.89,0,0,1-4.39.15c-.58-.16-.32-.66-.52-1-.31.27.05,1-.63,1A3.08,3.08,0,0,0,7,161c1.75-.45,3.64-.31,5.28-1.23.34-.19.81-.25.94-.66.28-.88.86-.73,1.49-.51a5.85,5.85,0,0,0-.05-1.35,3.76,3.76,0,0,0-.11-.5A3.08,3.08,0,0,0,13.5,155.2Z"/><path class="cls-6" d="M68,55.25v0a.27.27,0,0,0,0-.08.71.71,0,0,0-.2-.18c-.15-.1-.3-.17-.15-.26.39-.23.61-1,1.38-.52.52.34.35-.26.42-.5-2.14-.85-4.33-1.57-6.54-2.22a5.74,5.74,0,0,0-1.52-.18c-.12.58-.25,1.15-.36,1.73a.66.66,0,0,0,.54.88L68,55.4h0A.28.28,0,0,0,68,55.25Z"/><path class="cls-7" d="M56,174.18a2.48,2.48,0,0,0,.45-1.31,3.15,3.15,0,0,0-.27-1.36c-.75.09-1.38.51-2.13.64a2.47,2.47,0,0,1-3-1.37,1.23,1.23,0,0,0-1.55-.7h0a3.32,3.32,0,0,0-.85,1.07,3.19,3.19,0,0,0-.32,1.33c.19,0,.44,0,.58.1C51,174.29,53.5,174.26,56,174.18Z"/><path class="cls-5" d="M9.45,56.92a11.31,11.31,0,0,1,3.83-2,10.68,10.68,0,0,1,1.43-.32,1.1,1.1,0,0,0-.28-.48,3.37,3.37,0,0,0-.43-.36l-.23-.17a1.6,1.6,0,0,1-.38-.41,1.1,1.1,0,0,1-.12-.27A3.14,3.14,0,0,1,13,52c-.93.17-1.84.45-2.77.59a7.15,7.15,0,0,1-.94.08,5,5,0,0,0-.66.3A5.56,5.56,0,0,0,7,54.38H7q.34.13.66.29A2.77,2.77,0,0,1,9.45,56.92Z"/><path class="cls-8" d="M5.22,63.08a3,3,0,0,0,1.33.44A11.2,11.2,0,0,1,7.81,59,1.36,1.36,0,0,1,7,58.92a1.28,1.28,0,0,1-.41-.28,1.65,1.65,0,0,1-.19-.22A2.22,2.22,0,0,1,6.2,58,2.6,2.6,0,0,1,6,57.45c-.14-.77-.55-.72-1-.92a9.85,9.85,0,0,0-1.32,2.4,9.74,9.74,0,0,0-.6,2.67C4.36,61.34,4.48,62.65,5.22,63.08Z"/><path class="cls-4" d="M28.39,171c.21-.53,1.1,0,1.24-.74a3,3,0,0,0-1.72-1.34,3.56,3.56,0,0,0-1-.13,5.48,5.48,0,0,0-1.1.13,3.74,3.74,0,0,0-2.94,3.32c1.06,0,2.12,0,3.19.07A2.16,2.16,0,0,0,28.39,171Z"/><path class="cls-10" d="M9.66,78.91c-1.31-.48-1.45-.39-1.45,1.37a10.61,10.61,0,0,0,.93,3.53c.18.39.36.84.9.83a4.67,4.67,0,0,0,2-2.09A3.45,3.45,0,0,0,9.66,78.91Z"/><path class="cls-10" d="M6.21,157.35c.21.32-.06.82.52,1a5.89,5.89,0,0,0,4.39-.15c1.23-.62,2.28-1.43,2.37-3a2.16,2.16,0,0,0-1.19-.75,8.31,8.31,0,0,1-1.57,1.76c-.92,1-2.42.55-3.68.36-.43-.06-.16-.77-.61-.93a3.14,3.14,0,0,0-.86,1.94,4.89,4.89,0,0,0,0,.74C6.26,158.31,5.9,157.61,6.21,157.35Z"/><path class="cls-4" d="M65.33,154a15.3,15.3,0,0,0,1.14,2c.85,1.07,2.1.63,3.21.7a1.67,1.67,0,0,0,2-1.26,4.93,4.93,0,0,0-.58-.73,4.5,4.5,0,0,0-1.43-1,4.39,4.39,0,0,0-.82-.27A4.8,4.8,0,0,0,65.33,154Z"/><path class="cls-9" d="M11.33,42.61c-2.15.16-4.05,1.13-6.06,1.77.1.5.21,1,.31,1.51s.27.62.74.48,1-.27,1.49-.4a31.88,31.88,0,0,0,4.44-1.26C12.6,43.72,11.33,43.44,11.33,42.61Z"/><path class="cls-9" d="M18.79,122.56a2,2,0,0,0,.64-1.11,33.47,33.47,0,0,1,2.67-7.58,5,5,0,0,0,.28-1.15l-.77-1q-.7,1.29-1.3,2.61a44.05,44.05,0,0,0-2.77,8.26Z"/><path class="cls-12" d="M11.33,42.61c.07-.51.5-.56.87-.68.79-.26,1.57-.57,2.38-.77.6-.15,1.19-.36,1.78-.56l.76-.25A6.93,6.93,0,0,1,19.41,40h0c-.14-.22,0-.65-.05-1s-.21-.5-.94-.24Q12.08,41,5.74,43.17c-.44.15-.68.34-.7.61a1,1,0,0,0,.23.6C7.28,43.74,9.19,42.77,11.33,42.61Z"/><path class="cls-4" d="M6.34,66.87l0-.94c-.16-.08-.16-.16,0-.24L6.71,65a1,1,0,0,0,0-.38,5.79,5.79,0,0,1-.2-1.09,3,3,0,0,1-1.33-.44c-.74-.44-.86-1.75-2-1.48A7.62,7.62,0,0,0,3,64.52a13.68,13.68,0,0,0,.71,2.84C4.56,67.1,5.57,67.61,6.34,66.87Z"/><path class="cls-10" d="M65.16,85.68c-.6,1.46-.48,2,.63,3.14.55.56.91.49,1.28-.18a9,9,0,0,0,1.43-4.31c.33-1-.06-1.11-1.07-1C65.85,83.44,65.61,84.6,65.16,85.68Z"/><path class="cls-7" d="M24.2,174a5.8,5.8,0,0,0,5.62-1.4,1.07,1.07,0,0,1,.73-.35c-.19-.71-.17-1.52-.92-2-.14.71-1,.21-1.24.74A2.16,2.16,0,0,1,26,172.33c-1.07-.07-2.13,0-3.19-.07a2.06,2.06,0,0,0,.49,2.16C23.6,174.25,23.72,173.85,24.2,174Z"/><path class="cls-4" d="M56.13,68.94c0,.49-.19.8-.71.84l.07.95c1,.2,1.91.28,1.74-1.2l.2,0,.39.22A5.59,5.59,0,0,1,58,68.73a8,8,0,0,1,1.37-2.81,2.2,2.2,0,0,1-1-2.13l-.37,0a8.53,8.53,0,0,0-1.08,1.18,7.31,7.31,0,0,0-1.48,4.35C55.69,69.26,55.75,68.85,56.13,68.94Z"/><path class="cls-4" d="M51,170.78a2.47,2.47,0,0,0,3,1.37c.75-.12,1.38-.55,2.13-.64a4.26,4.26,0,0,0-2.45-2.63,3.43,3.43,0,0,0-1.4-.2,3.67,3.67,0,0,0-.48.06,4.07,4.07,0,0,0-1,.33,5.19,5.19,0,0,0-1.39,1A1.23,1.23,0,0,1,51,170.78Z"/><path class="cls-4" d="M73.51,71.14a19.24,19.24,0,0,0-.3-2.07,5.39,5.39,0,0,0-.48.36,1.76,1.76,0,0,1-1.08.5l.15.19c0,.38.2.85-.33,1.08A6.26,6.26,0,0,1,68,75.26l1,.26h0c-.5.08-.46.19-.4.25s.15.07.32-.06a.77.77,0,0,1,.39-.14,1.61,1.61,0,0,1,1.31.48h0a6,6,0,0,0,1.72-1.54,6.52,6.52,0,0,0,1.17-2.69A6.86,6.86,0,0,0,73.51,71.14Z"/><path class="cls-7" d="M60.21,109.91c-1.27.39-2.53-.13-3.76.18.32,1.25,1.22,2.22,1.64,3.43.19.55.59.36,1,.2a4.06,4.06,0,0,0,2.54-2.9,5.37,5.37,0,0,0,.12-1.45C61.23,109.57,60.73,109.75,60.21,109.91Z"/><path class="cls-11" d="M51.22,176a5.54,5.54,0,0,0,.78.17,4.53,4.53,0,0,0,.73,0,3.88,3.88,0,0,0,.69-.07,3.79,3.79,0,0,0,2.59-2c-2.51.09-5,.11-7.11-1.6-.13-.11-.38-.07-.58-.1C48.28,174.72,49.61,175.54,51.22,176Z"/><path class="cls-9" d="M55.5,115.12c-.27.89.48,1.47.77,2.15.88,2,1.19,4.31,2.33,6.25a.26.26,0,0,1,.15,0,.23.23,0,0,1,.16.11c.13.17.2.49.43.42a.51.51,0,0,0,.18-.11h0a.48.48,0,0,0,.3-.65c0-.09-.05-.17-.08-.26-.42-1.34-.85-2.68-1.33-4a36,36,0,0,0-1.65-3.88C56.35,115.14,55.92,114.27,55.5,115.12Z"/><path class="cls-11" d="M30.56,172.25a1.07,1.07,0,0,0-.73.35A5.8,5.8,0,0,1,24.2,174c-.48-.14-.61.26-.89.43a4.28,4.28,0,0,0,5.09,1.36,3.91,3.91,0,0,0,1.38-.84,2.56,2.56,0,0,0,.57-.85A3.65,3.65,0,0,0,30.56,172.25Z"/><path class="cls-12" d="M61.84,50.16a.53.53,0,0,0-.19.08c-.22.15-.3.49-.28,1a5.74,5.74,0,0,1,1.52.18c2.21.66,4.4,1.37,6.54,2.22,1.49.19,2.79,1.08,4.3,1.19.44-.77-.17-.84-.66-1-3.43-1.17-6.88-2.3-10.28-3.54A1.87,1.87,0,0,0,61.84,50.16Z"/><path class="cls-4" d="M6.45,155.65c.44.16.18.87.61.93,1.27.18,2.76.68,3.68-.36a8.31,8.31,0,0,0,1.57-1.76,4.82,4.82,0,0,0-.79-.38,4.54,4.54,0,0,0-1.64-.29A4.11,4.11,0,0,0,6.45,155.65Z"/><path class="cls-11" d="M14.72,158.57c-.63-.21-1.21-.36-1.49.51-.13.41-.6.47-.94.66-1.65.92-3.53.78-5.28,1.23A3.18,3.18,0,0,0,8.94,162a4.83,4.83,0,0,0,2.89-.2,6,6,0,0,0,.92-.43A3.33,3.33,0,0,0,14.72,158.57Z"/><path class="cls-9" d="M6,57.45A2.6,2.6,0,0,0,6.2,58a2.22,2.22,0,0,0,.24.44,1.65,1.65,0,0,0,.19.22,1.28,1.28,0,0,0,.41.28,1.36,1.36,0,0,0,.77.07h0l1.64-2.07a2.77,2.77,0,0,0-1.79-2.25q-.32-.16-.66-.29H7l-.56.47c-.18.16-.36.33-.52.5a4.49,4.49,0,0,0-.83,1.19C5.5,56.73,5.91,56.69,6,57.45Z"/><path class="cls-14" d="M62.71,29a27.34,27.34,0,0,1,5.94,3,2.65,2.65,0,0,0,1.48.65A1.27,1.27,0,0,1,71,32.1l.34,0h0c0,.49.18.75.72.49a.58.58,0,0,0-.27-.38,1,1,0,0,0-.45-.12h0a17.7,17.7,0,0,0-1.79-1.31q-.47-.3-.95-.57a34.85,34.85,0,0,0-5-2.26C63.13,28.14,62.61,28.29,62.71,29Z"/><path class="cls-7" d="M17.45,114c.5.21.83.18,1-.34l1-2.39a26.54,26.54,0,0,1-4.29-1.21A3.82,3.82,0,0,0,17.45,114Z"/><path class="cls-8" d="M69,54.18c-.77-.51-1,.29-1.38.52-.15.08,0,.15.15.26a.71.71,0,0,1,.2.18.27.27,0,0,1,0,.08v0a.28.28,0,0,1,0,.14h0l4.24,1.15c.75.2,1.24,0,1.3-.87a5,5,0,0,1,.19-.81c-1.51-.11-2.81-1-4.3-1.19C69.35,53.92,69.52,54.52,69,54.18Z"/><path class="cls-5" d="M26.74,187.73c0,.72-.37.91-1,.84-.16-.69-.53-.57-1-.24.25.34.62.21,1,.25.14.67.78.69,1.24.92s1,.38,1.17,1c.1,0,.27,0,.27.08,0,.21-.16.13-.27.16h0a.42.42,0,0,0,0,.14.18.18,0,0,0,.09.15c.12.07.34.06.41.19a1.6,1.6,0,0,0,2.17-1c-.45-.4-.9-.8-1.38-1.16A6.89,6.89,0,0,0,26.74,187.73Z"/><path class="cls-7" d="M32.67,107.69c.5-.14.9.24,1.39.35-.27-2.08-.27-2.08.85-1.81,0-.88,0-1.75-.06-2.63,0-.22.1-.55-.2-.61a1,1,0,0,0-.64.22,3.52,3.52,0,0,0-1.38,1.89A4.71,4.71,0,0,0,32.67,107.69Z"/><path class="cls-4" d="M47.75,2.19a1.14,1.14,0,0,0-1.23-1.07,1.26,1.26,0,0,0-1.28,1.09,1.25,1.25,0,0,0,1.34,1.19A1.08,1.08,0,0,0,47.75,2.19Z"/><path class="cls-4" d="M2.49,81.57a1.12,1.12,0,0,0-1.19,1.2,1.2,1.2,0,0,0,1.19,1.16c.78,0,1.2-.41,1.18-1.12A1.16,1.16,0,0,0,2.49,81.57Z"/><path class="cls-4" d="M73.88,89.7a1.16,1.16,0,0,0,1.27-1.15c-.13-.72-.55-1.23-1.27-1.19a1.16,1.16,0,0,0-1.1,1.33A1,1,0,0,0,73.88,89.7Z"/><path class="cls-4" d="M42.59,103.32c-.36-.3-.48-.08-.49.25,0,.66,0,1.31,0,2C43,105,42.36,104,42.59,103.32Z"/><path class="cls-9" d="M21.66,45.29a.37.37,0,0,1-.19-.24.66.66,0,0,1,0-.19.81.81,0,0,0-.73.16v.75c-.08.09-.3.14-.09.31l.09-.3,1.2.24q0-.12,0-.24A.5.5,0,0,1,21.66,45.29Z"/><path class="cls-10" d="M55.43,69.78c.52,0,.69-.35.71-.84-.38-.09-.44.32-.7.35A.3.3,0,0,0,55.43,69.78Z"/><path class="cls-3" d="M9.87,189.72a1,1,0,0,0-.69.52C9.54,190.24,9.91,190.25,9.87,189.72Z"/><path class="cls-4" d="M15.14,139.32q0,.53,0,1.05A.62.62,0,0,0,15.14,139.32Z"/><path class="cls-5" d="M63.92,56.52a.38.38,0,0,0-.21-.21l-.14,0h-.15C63.47,56.62,63.53,56.95,63.92,56.52Z"/><path class="cls-15" d="M58.4,150.4l-.26.25"/><path class="cls-5" d="M64.86,56.56h-.24C64.69,56.71,64.77,56.74,64.86,56.56Z"/><path class="cls-13" d="M32.22,30.65c1.28.08,2.52-.27,3.8-.26a62,62,0,0,1,12.63,1.36,62.33,62.33,0,0,1,15.11,5.46,6.31,6.31,0,0,1,.86.63h0C65.8,38.45,67,39,68.15,39.7c.38.22.76.45,1.14.7s.56.62.92.43.4-.73.41-1.17a28.13,28.13,0,0,1,.22-4.88,2.19,2.19,0,0,0,0-.61,2.65,2.65,0,0,0-.75-1.58h0a2.65,2.65,0,0,1-1.48-.65,27.34,27.34,0,0,0-5.94-3c-1.75-.64-3.47-1.37-5.25-1.89a81.86,81.86,0,0,0-23.38-3.39h-.2l-.41,0h-.21a1.13,1.13,0,0,1-.79-.27h0c-2.19.37-4.42.22-6.62.46-.61.07-1,.1-.46.79a1.45,1.45,0,0,1,.23,1.57,2.6,2.6,0,0,1-2.88,1.21,2,2,0,0,1-1.8-2.05c0-.09,0-.18,0-.27a.56.56,0,0,0-.16-.39l0,0a.61.61,0,0,0-.29-.1c-1.2.26-2.41.5-3.61.78a1.38,1.38,0,0,0-1.17.88,25.52,25.52,0,0,0-1.47,7.08c0,.82.3.8.93.62l3.62-1,3.62-.94A67.06,67.06,0,0,1,32.22,30.65Z"/><path class="cls-14" d="M63.76,37.21a62.33,62.33,0,0,0-15.11-5.46A62,62,0,0,0,36,30.38c-1.28,0-2.52.34-3.8.26a6.72,6.72,0,0,1,.23.92c.21,1.87,1.49,3.22,2.39,4.72.76,1.25,2.43,1.71,3.43,2.86.1.12.38.08.56.15.71.25,1.64.28,1.37,1.48-.09.37.27.43.56.43s.8,0,1.2,0a4.78,4.78,0,0,1,3.53,1.5,1.57,1.57,0,0,0,1.32.42h6.83c.41,0,.93,0,1.12-.28.78-1.34,2.14-.88,3.26-1.17.79-.2,1.93-.23,2.27-.75.78-1.2,2-1.31,3.08-1.54a3.18,3.18,0,0,0,.66-.21,1.09,1.09,0,0,0,.4-.3.82.82,0,0,0,.12-.2,1.29,1.29,0,0,0,.09-.51,3,3,0,0,0,0-.33A6.31,6.31,0,0,0,63.76,37.21Z"/><path class="cls-11" d="M61.44,137.92c0-.26,0-.52,0-.78s0-.52,0-.78c0-.71-.25-.94-.94-.4a27.82,27.82,0,0,1-10.37,4.86c-1.49.38-3,.62-4.51.89a39.88,39.88,0,0,1-10.09.58,29.85,29.85,0,0,1-17-6.52c-.3-.24-.66-.59-1.06-.37s-.16.73-.23,1.1V137L17,138.88q0,1.2,0,2.4c0,2.64,0,2.63,2.46,3.65,4.95,2.06,10.22,2.65,15.5,2.88a61.29,61.29,0,0,0,11.17-.74c.64-.09,1-.25.87-.92-.11-.9.09-1.61,1.14-1.73s1.87-.06,2.1,1.18c.12.64.45.77,1.12.62a67.65,67.65,0,0,0,9.84-2.75c.67-.27.71-.61.58-1.19a4,4,0,0,1,.09-2.67v-.25C62.08,138.77,61.53,138.42,61.44,137.92Z"/><path class="cls-10" d="M61.49,139.36c.58.06.79-.23.71-.78a.69.69,0,0,0-.28-.53.79.79,0,0,0-.32-.11c-.18,0-.38,0-.57,0C61.13,138.42,61.68,138.77,61.49,139.36Z"/><path class="cls-10" d="M16.5,136.77c0,.09.23.13.35.19v-.48C16.69,136.52,16.45,136.52,16.5,136.77Z"/><path class="cls-10" d="M15.45,138c0,.06.06.12.1.19s.09-.13.09-.19-.06-.12-.1-.18S15.45,138,15.45,138Z"/><path class="cls-6" d="M21.9,45.76c.23-.24.19-.35.06-.41a1.22,1.22,0,0,0-.31-.07A.5.5,0,0,0,21.9,45.76Z"/><path class="cls-8" d="M56.2,78.85a16.11,16.11,0,0,1-2.53-2.76,8.8,8.8,0,0,1-1-2,8.31,8.31,0,0,1-2,.41c-1.13.1-2.27,0-3.41.09-1.49.06-2.25-.87-3-1.93h-.48a.66.66,0,0,1-.73.71c-.47,0-.69-.28-.71-.73h-.47a.91.91,0,0,1-.26.61.74.74,0,0,1-.15.11.65.65,0,0,1-.34.09.51.51,0,0,1-.31-.11c-.79-.62-2.16.92-2.56-.75-.67,0-1.35-.06-2,0-.82,0-1-.27-.66-1s.54-1.65.8-2.48a1.34,1.34,0,0,0-.56-.4,1.83,1.83,0,0,0-.7-.1c-.56,0-1.11,0-1.67,0H31.73c-.42.11-.43.73-.93.72a.77.77,0,0,1-.49.72h0a4.48,4.48,0,0,1-1.09,2.06,7.68,7.68,0,0,1-1.37,1.38,9.24,9.24,0,0,0-1.4,1.35c.73.29,1.66.24,2,1.2,0,.12.34.19.53.22,1.07.17,2,.71,3.05,1,1.22.3,2.3,1.07,3.64,1,1.78-.11,3.37,1,5.16.92a.7.7,0,0,1,.53.24c.52.82,1.33.76,2.13.75,2.08,0,4.16-.08,6.24,0s4.15-.54,6.16.66c-.08-.49-.58-.75-.31-1.12s.48.23.79.18a2.38,2.38,0,0,1,.42,0l.42,0A5.62,5.62,0,0,0,56.2,78.85Z"/><path class="cls-2" d="M35.53,71.53c-.29.73-.16,1,.66,1,.67,0,1.35,0,2,0l3.61,0h.47l1.44,0h.48c.7,0,1.64.19,2-.18s.1-1.3.12-2h0a1.71,1.71,0,0,0,0-.66c-.14-.54-.62-.75-1.33-.79a5.77,5.77,0,0,1-2-.24,2.69,2.69,0,0,1-1.45-.19c-.91-.09-1.84-.13-2.74-.25-.3,0-.6-.09-.9-.16a2.35,2.35,0,0,0-.59-.07c-.52,0-.82.31-1,.91h0C36.07,69.88,35.85,70.73,35.53,71.53Z"/><path class="cls-9" d="M46.25,72.47c-.39.36-1.33.14-2,.18.72,1.05,1.49,2,3,1.93,1.14,0,2.28,0,3.41-.09a8.31,8.31,0,0,0,2-.41h0c0-.59-.57-1-.47-1.68a3.12,3.12,0,0,1-.27-1.25c0-.7.1-1.42,0-2.12h0a15.89,15.89,0,0,0-3.54-.25c-.91,0-1.72,0-1.51,1.26,0,.21-.1.33-.28.39l-.19,0C46.35,71.17,46.6,72.15,46.25,72.47Z"/><path class="cls-9" d="M43,68.8c.17-.27.64-.41.37-.86s-.58-.33-.93-.33a.72.72,0,0,0-.67.3,1.8,1.8,0,0,0-.22.7A2.69,2.69,0,0,0,43,68.8Z"/><path class="cls-9" d="M46.73,67c-.39-.08-.82-.37-1,.18,0,.12,0,.4.07.43C46.29,67.84,46.46,67.37,46.73,67Z"/><path class="cls-9" d="M45,68.44l.11-.05h0c0-.07,0-.17-.08-.19s-.13,0-.2.07,0,.17.08.19A.12.12,0,0,0,45,68.44Z"/><path class="cls-2" d="M32.46,90.22c0,2.46,0,2.46,2.36,2.93,1.88.37,2.09.2,2.19-1.74a22,22,0,0,1,.48-4.11,36.59,36.59,0,0,1,.36-4.52c0-.67.09-1.15-.78-1.25A30.36,30.36,0,0,1,33.55,81c-.69-.16-.84,0-.84.67,0,1.64-.06,3.27-.09,4.91C32.88,87.78,32.44,89,32.46,90.22Zm1.47-2h.18c0-1.75,0-3.51,0-5.26,0-.34-.18-1,.52-.75s1.85-.22,1.8.84c-.13,2.58-.5,5.14-.79,7.71,0,.43,0,.9-.76.71-.5-.13-1-.06-1-.86S33.93,89,33.93,88.24Z"/><path class="cls-2" d="M39.67,91.95c0,.4,0,.81.56.85q1.55.1,3.09.25c.7.07.88-.25.91-.9.07-1.55.21-3.1.33-4.65.11-1.27.21-2.54.34-3.8.08-.7-.11-1-.88-1a21.81,21.81,0,0,1-2.84-.34c-.76-.12-1,.18-1,.9,0,1,0,2-.1,3a9.25,9.25,0,0,1-.16,1h0A42,42,0,0,1,39.67,91.95Zm1.52-1.56c.12-2,.28-4,.36-6,0-.85.55-.69,1.06-.69s1,.07.87.78A46.61,46.61,0,0,0,43,91c0,.71-.5.57-.93.56C41.32,91.52,41,91.15,41.19,90.38Z"/><path class="cls-2" d="M46.92,89.53c-.54,3-.51,3,2.54,3,1.07,0,1.35-.41,1.48-1.34.18-1.33.49-2.64.74-4a6.63,6.63,0,0,1,.6-2.76c.48-1,.16-1.44-.9-1.56-.91-.11-1.82-.21-2.72-.38-.54-.1-.81,0-.9.6s-.21,1.45-.32,2.17-.23,1.45-.35,2.17A9.24,9.24,0,0,1,46.92,89.53Zm1.34.32c.23-1.7.52-3.43.69-5.18.08-.89.61-.74,1.17-.72.8,0,.62.59.54,1-.29,1.69-.64,3.36-.91,5.05-.1.59-.12,1.13-.94,1S48.44,90.29,48.27,89.85Z"/><path class="cls-2" d="M25.52,89.67c0,.48.09.85.65,1q1.63.36,3.25.8c.53.14.56,0,.56-.51,0-2.1-.3-4.2-.09-6.3,0-.32,0-.64,0-1,0-1.72,0-1.72-1.69-2-.59-.11-1.18-.19-1.76-.32-.9-.2-1.25.12-1.15,1,0,.38,0,.76,0,1.14s0,.76,0,1.14A34.08,34.08,0,0,1,25.52,89.67Zm2.05-7c.45,0,1-.1,1,.66,0,1,0,1.91,0,2.87h0c0,.84,0,1.68,0,2.51,0,.32.17.88-.37.81S27,89.65,27,88.93c-.13-1.91-.2-3.82-.26-5.73C26.69,82.55,27.19,82.69,27.57,82.71Z"/><path class="cls-2" d="M19.74,85.19c.14,2.33.13,2.33,2.43,2.59a1.46,1.46,0,0,1,.35.07c.94.35,1.1-.12,1.05-.92s0-1.51,0-2.27a9.29,9.29,0,0,1-.19-1.16c-.11-2.81-.1-2.81-2.86-2.49-.86.1-1.21.19-1.25.58a3.4,3.4,0,0,0,.22,1.12C19.56,83.54,19.69,84.36,19.74,85.19ZM21.43,82c.37,0,.63.07.63.49,0,.59,0,1.19,0,1.78h.07c0,.47,0,.95,0,1.42,0,.24.15.61-.32.61s-.63-.16-.58-.69a8.07,8.07,0,0,0-.36-2.86C20.71,82.12,21,82,21.43,82Z"/><path class="cls-2" d="M53.32,87.75c-.38,2.63-.38,2.63,2.39,2.66h.24c.71.1,1-.18,1-.92a8.66,8.66,0,0,1,.18-2.94c.06-3.25.43-2.35-2-3.11-.92-.28-1.18.14-1.23.93a14.13,14.13,0,0,1-.17,1.46,9.78,9.78,0,0,1-.36,1.43A3.41,3.41,0,0,1,53.32,87.75Zm1.27.69c.22-1.24.45-2.47.68-3.7l.52.07c-.06,1.25-.11,2.5-.19,3.74,0,.35-.33.41-.64.38A.38.38,0,0,1,54.59,88.44Z"/><path class="cls-10" d="M15.43,83.68a.82.82,0,0,0-.06,1,1.63,1.63,0,0,0,.54.42A1.09,1.09,0,0,0,15.43,83.68Z"/><path class="cls-14" d="M28.15,124.26l.71,0a7.72,7.72,0,0,1,1.35-3.73c.43-.67.91-1.31,1.38-2a14.5,14.5,0,0,1,1.12-1.24,1.15,1.15,0,0,1,0-.18c0-.13,0-.26,0-.38a.93.93,0,0,0,0-.36.57.57,0,0,0-.5-.33c-1.7-.29-2.88-1.72-4.57-2a.86.86,0,0,1-.74-.53c-.22-.63-.71-.7-1.31-.8s-1.72,0-1.55-1.19c-.55-.18-.17,1-.89.51l-.47.48-.24.24h0a5,5,0,0,1-.28,1.15,33.47,33.47,0,0,0-2.67,7.58,2,2,0,0,1-.64,1.11c-.11.91-.18,1.82-.32,2.72-.2,1.2-.15,1.23,1,.92,2.54-.67,5.09-1.27,7.67-1.71A1.49,1.49,0,0,1,28.15,124.26Z"/><path class="cls-14" d="M56.27,117.27c-.29-.68-1-1.25-.77-2.15a1.76,1.76,0,0,1-.53-.82c-.2-.52-.33-1.08-.91-1.34h0a4,4,0,0,0-1.35-.37,2,2,0,0,0-1.92,1c-.17.25-.64.28-.94.45-1,.56-2.23.43-3.09,1.52-.42.53-1.64.48-2.5.58a2.44,2.44,0,0,0-.78.14,22.48,22.48,0,0,1,3,2.85,10,10,0,0,1,2.06,4.1c.07,1.15,1,1.26,1.8,1.42A21,21,0,0,1,55,125.91a4.91,4.91,0,0,1,1.55.41,14.33,14.33,0,0,0,1.5.58c1.23.35,1.25.34,1-.85-.17-.84-.32-1.69-.48-2.53C57.46,121.58,57.15,119.32,56.27,117.27Z"/><path class="cls-2" d="M47.3,125.26a7.65,7.65,0,0,0-.09-1.31q-.05-.33-.14-.66a10.08,10.08,0,0,0-4.36-5.67c-3.89-2.3-8.69-.84-11.13,3.28a9.23,9.23,0,0,0-1.34,5.49c.1.38.2.77.32,1.15A7.5,7.5,0,0,0,34.65,132a8.43,8.43,0,0,0,5.65.59c1.05-.27,2.21-.05,3.17-.7.14-.66.71-.64,1.2-.76l.54-.66,1.63-1.95v0h0A15.29,15.29,0,0,0,47.3,125.26Zm-2.59,3.09h0a2.6,2.6,0,0,1-1.25,1.46l-.55.34a8.25,8.25,0,0,1-9.79-1.27,4.6,4.6,0,0,1-1.32-2.46,4.39,4.39,0,0,1-.05-1,8.54,8.54,0,0,1,.48-2.79,6.3,6.3,0,0,1,1.89-2.75c3.29-3.55,8.15-2.39,10.43,1.22a1.2,1.2,0,0,1,.17.44,2.23,2.23,0,0,1,0,.47l0,0a.36.36,0,0,1,.44.27,1.38,1.38,0,0,1,.05.19,7.44,7.44,0,0,1,.61,2.26,5.17,5.17,0,0,1,0,.74A4.87,4.87,0,0,1,44.71,128.36Z"/><path class="cls-6" d="M31.6,120.91c2.43-4.12,7.24-5.58,11.13-3.28a10.08,10.08,0,0,1,4.36,5.67c.48-.39,1,.07,1.46,0a10,10,0,0,0-2.06-4.1,22.48,22.48,0,0,0-3-2.85c-1.07-.1-1.89-.84-3-1a10,10,0,0,0-7.26,1.78,3.27,3.27,0,0,1-.54.22h0a14.5,14.5,0,0,0-1.12,1.24c-.47.65-.95,1.29-1.38,2a7.72,7.72,0,0,0-1.35,3.73,4.27,4.27,0,0,1,.27,1,4.12,4.12,0,0,0,.13.42,1.5,1.5,0,0,0,.2.37.93.93,0,0,0,.14.15.94.94,0,0,0,.66.21A9.23,9.23,0,0,1,31.6,120.91Z"/><path class="cls-9" d="M50.35,124.7c-.85-.16-1.74-.26-1.8-1.42-.49.08-1-.39-1.46,0q.09.33.14.66a7.65,7.65,0,0,1,.09,1.31,15.32,15.32,0,0,1-.49,3.24,1.78,1.78,0,0,0,2.69.09,4,4,0,0,1,3.32-.9c1,.23,1.53.3,1.83,0s.36-.81.37-1.83A21,21,0,0,0,50.35,124.7Z"/><path class="cls-9" d="M45.2,130.48c1.49.39,1.81.13,1.66-1.36,0-.2,0-.39,0-.59Z"/><path class="cls-4" d="M43.46,131.9c.46.11.85.76,1.35.31a.45.45,0,0,0,.11-.52,5.77,5.77,0,0,0-.26-.55C44.17,131.26,43.6,131.24,43.46,131.9Z"/><path class="cls-6" d="M27.18,124.49c0,.29-.06.71.43.66a.5.5,0,0,0,.46-.32,1.75,1.75,0,0,0,.08-.58A1.49,1.49,0,0,0,27.18,124.49Z"/><path class="cls-11" d="M53.1,155.18a57.37,57.37,0,0,1-6.85,1.87c-.78.15-1.56.27-2.36.36A39,39,0,0,1,29,156.12a23.58,23.58,0,0,1-2.44-.92,9.81,9.81,0,0,0-2.5-.73h0c0-.17,0-.38-.31-.35a.11.11,0,0,0-.08.07c0,.26.18.26.35.31a.66.66,0,0,0,.31.58c.3.23.7.39.68.85h0a2.16,2.16,0,0,1,1.34.45,25.34,25.34,0,0,0,9.24,3.53,21.45,21.45,0,0,0,14.31-2.16c1.1-.61,2.12-1.37,3.18-2.06l0-.23Z"/><path class="cls-10" d="M53.1,155.18l0,.27c.47-.07.78-.3.91-1l-.34.12C53.37,154.69,53.14,154.78,53.1,155.18Z"/><path class="cls-7" d="M8.27,198.38c2,.15,4,.47,5.93.48,5.57,0,11.15.27,16.71-.43,1.78-.22,2.08-.47,1.74-2.22,0-.23-.12-.46-.17-.69A6.26,6.26,0,0,0,31,192.68c-.91,1.85-2.56,2.54-4.34,3.1-4.22,1.33-8.56,1.32-12.9,1.13a14.68,14.68,0,0,1-5.28-1.27c-.57-.26-.9-.37-1.11-.26s-.23.29-.29.67c0,.13,0,.27,0,.43C6.92,197.46,7,198.29,8.27,198.38Z"/><path class="cls-12" d="M66.58,189.71a17.72,17.72,0,0,0-4.15-2.06,15.83,15.83,0,0,0-12,1.39c-.06.36-.62.38-.59.83a1.79,1.79,0,0,0,1.27,0,18.67,18.67,0,0,1,3.3-.39c2.06,0,4.13,0,6.19.06a39.44,39.44,0,0,1,6.15.68C67,190,66.75,189.8,66.58,189.71Z"/><path class="cls-7" d="M71.07,196.37c-.08-.65-.4-1-1.15-.71a24,24,0,0,1-8.38,1.51,35.22,35.22,0,0,1-10.36-1.44,5.51,5.51,0,0,1-3.46-2.19c-.65-1.06-1-.38-1.3.17a7.56,7.56,0,0,0-1,2.77c-.09,1.08,0,1.81,1.44,2,3.28.4,6.58.37,9.87.63a45.46,45.46,0,0,0,5.13-.16,83.22,83.22,0,0,0,9.26-.77A16.29,16.29,0,0,0,71.07,196.37Z"/><path class="cls-12" d="M24,111.49c-.18,1.21.87,1.07,1.55,1.19s1.09.17,1.31.8a.86.86,0,0,0,.74.53c1.69.31,2.87,1.74,4.57,2a.57.57,0,0,1,.5.33.93.93,0,0,1,0,.36c0,.13,0,.26,0,.38a1.15,1.15,0,0,0,0,.18,3.27,3.27,0,0,0,.54-.22,10,10,0,0,1,7.26-1.78c1.1.19,1.91.93,3,1a2.44,2.44,0,0,1,.78-.14c.87-.1,2.08,0,2.5-.58.86-1.09,2.1-1,3.09-1.52.31-.17.77-.2.94-.45a2,2,0,0,1,1.92-1,4,4,0,0,1,1.35.37h0a28.93,28.93,0,0,0-1.85-4.12c-.6-1.35-1.38-2.28-3-2.24-.61,0-.76,0-.91.63-.69,3-4.14,5.71-7.24,6A18.61,18.61,0,0,1,34.9,113c-2.29-.55-5.72-2.5-6.18-5.54-.22-1.46-.53-1.53-1.87-.78a1.71,1.71,0,0,0-.32.25l-.3.28h0l-.1-.32-.09.06.18.26a5.76,5.76,0,0,0-1.52,1.57A10.36,10.36,0,0,0,24,110c-.32.65-.59,1.32-.9,2C23.81,112.5,23.44,111.31,24,111.49Z"/><path class="cls-12" d="M13.11,189.37l-.38.22a1.93,1.93,0,0,1-1.26.42h0c-.07.29-.59.47-.34.8s.67.19,1,.11.64-.37,1-.4c2.24-.19,4.49-.48,6.74-.47,2,0,4.09.16,6.13.3l2,.13h0v.24c.11,0,.29,0,.27-.16,0,0-.18-.05-.27-.08-.14-.62-.69-.76-1.17-1s-1.1-.25-1.24-.92c-.33,0-.7.1-1-.25a3.83,3.83,0,0,1-1.17-.19A14.14,14.14,0,0,0,13.11,189.37Z"/><path class="cls-12" d="M20.88,70.94h0l-.5.22a14.35,14.35,0,0,1-4.79.94,10.16,10.16,0,0,1-2.93-.41A8.21,8.21,0,0,1,6.43,65L6,65.68v.48l.27,1.2A9.55,9.55,0,0,0,8,69.95c2.85,2.89,6.3,3.52,10.1,2.42l.31-.07.66-.11a1.46,1.46,0,0,0,1.29-1h0a.65.65,0,0,0,.31,0C20.78,71.16,20.85,71.09,20.88,70.94Z"/><path class="cls-12" d="M22,70.68a.79.79,0,0,0-.29.06.48.48,0,0,0-.22.19h0l.5,0h0Z"/><path class="cls-3" d="M34.44,22.85c-.06,0-.12-.1-.18-.1s-.12.05-.19.09l.17.11Z"/><path class="cls-14" d="M18.38,55a10.84,10.84,0,0,1,1.13.38,11.64,11.64,0,0,1,2.12,1.11A14.16,14.16,0,0,1,23.57,58a5.15,5.15,0,0,1,.25-2.17,2.83,2.83,0,0,0-.46-.63,2.88,2.88,0,0,0-.6-.47,24.62,24.62,0,0,0-2.29-1.2A15.51,15.51,0,0,0,13,52a3.14,3.14,0,0,0,.25.87,1.1,1.1,0,0,0,.12.27,1.6,1.6,0,0,0,.38.41l.23.17a3.37,3.37,0,0,1,.43.36,1.1,1.1,0,0,1,.28.48A11.36,11.36,0,0,1,18.38,55Z"/><path class="cls-9" d="M25.9,61.39l-.17.21c.07.36.13.72.17,1.08a8.43,8.43,0,0,1-.17,3.24h.33a1.83,1.83,0,0,0,.32,0,.63.63,0,0,0,.5-.37,2.15,2.15,0,0,1,1.73-1,6.61,6.61,0,0,0-1.17-4.1C26.54,60.18,26.28,60.87,25.9,61.39Z"/><path class="cls-5" d="M23.57,58a15,15,0,0,1,2.16,3.6l.17-.21c.38-.53.64-1.21,1.54-1a2,2,0,0,0-.37-1.2,11.5,11.5,0,0,0-1.51-1.8c-.55-.55-1.15-1.05-1.75-1.55A5.15,5.15,0,0,0,23.57,58Z"/><path class="cls-2" d="M12.94,71.68a10.16,10.16,0,0,0,2.93.41,14.35,14.35,0,0,0,4.79-.94l.5-.22h0a.48.48,0,0,1,.22-.19.79.79,0,0,1,.29-.06h0A10.89,10.89,0,0,0,25,67.37a8.66,8.66,0,0,0,.72-1.45h0a8.43,8.43,0,0,0,.17-3.24c0-.36-.1-.72-.17-1.08A15,15,0,0,0,23.57,58a14.16,14.16,0,0,0-1.94-1.56,11.64,11.64,0,0,0-2.12-1.11A10.84,10.84,0,0,0,18.38,55a11.36,11.36,0,0,0-3.67-.38,10.68,10.68,0,0,0-1.43.32,11.31,11.31,0,0,0-3.83,2L7.81,59h0a11.2,11.2,0,0,0-1.26,4.54,5.79,5.79,0,0,0,.2,1.09,1,1,0,0,1,0,.38A8.21,8.21,0,0,0,12.94,71.68Zm4-14.9c2.06,0,4.58,1.56,6.23,4.46a5.68,5.68,0,0,1-.5,6.42c-2.48,3.46-8.4,4.16-11.77,1.55a6.69,6.69,0,0,1-2.09-7.76C9.75,58.61,12.42,56.78,16.9,56.77Z"/><path class="cls-12" d="M68,75.53l-.51.18h0a11.34,11.34,0,0,1-1.74.32,7.65,7.65,0,0,1-5-1.09,5.6,5.6,0,0,1-2.92-5.16h0l-.39-.22a6.45,6.45,0,0,0,.77,4.14,7.48,7.48,0,0,0,8.9,2.54l.16-.09a.35.35,0,0,0,.19-.43h0a.56.56,0,0,0,.3,0A.31.31,0,0,0,68,75.53Z"/><polygon class="cls-12" points="67.97 75.53 67.97 75.53 67.97 75.53 67.98 75.53 67.98 75.53 67.98 75.53 67.97 75.53"/><path class="cls-12" d="M68,75l-.47.26H68Z"/><path class="cls-14" d="M70,66.41a1.4,1.4,0,0,0,.51-1.24,1,1,0,0,0-.45-.74l-.25-.17c-2-1.36-4.19-2.43-6.75-2.17v1.44A7.17,7.17,0,0,1,70,66.41Z"/><path class="cls-6" d="M70.86,65.17a1.4,1.4,0,0,1-.51,1.24,11.73,11.73,0,0,1,1.29,3.51,1.76,1.76,0,0,0,1.08-.5,5.39,5.39,0,0,1,.48-.36h0A10,10,0,0,0,72.85,68,6.64,6.64,0,0,0,70.86,65.17Z"/><path class="cls-9" d="M59.35,65.93l1.9-1.6c.24-.74-.79-.9-.71-1.56l-.73.24-.93.31-.51.49A2.2,2.2,0,0,0,59.35,65.93Z"/><path class="cls-5" d="M60.85,64.33l2.17-.8V62.08a6.91,6.91,0,0,0-.75,0,5.58,5.58,0,0,0-2.13.65C60.06,63.43,61.09,63.59,60.85,64.33Z"/><path class="cls-10" d="M6,65.92v-.24C5.86,65.76,5.86,65.84,6,65.92Z"/><path class="cls-2" d="M70.36,66.41a7.17,7.17,0,0,0-6.94-2.89l-2.17.8-1.9,1.6A8,8,0,0,0,58,68.73a5.61,5.61,0,0,0,2.78,6.21,7.65,7.65,0,0,0,5,1.09,11.34,11.34,0,0,0,1.74-.32h0l.51-.18h0l.47-.26h0a7,7,0,0,0,3-4.07c.12-.36-.08-.81.33-1.08l-.15-.19h0A11.73,11.73,0,0,0,70.36,66.41Zm-5.26,8.4c-2.93,0-5.27-2-5.26-4.59A5.11,5.11,0,0,1,65,65.43a4.82,4.82,0,0,1,5,4.88C70,72.93,67.94,74.8,65.09,74.81Z"/><path class="cls-6" d="M71.47,71.2c.53-.23.29-.7.33-1.08C71.39,70.38,71.6,70.84,71.47,71.2Z"/><path class="cls-9" d="M38.21,72.57c.4,1.67,1.76.13,2.56.75a.51.51,0,0,0,.31.11.65.65,0,0,0,.34-.09.74.74,0,0,0,.15-.11.91.91,0,0,0,.26-.61Z"/><path class="cls-9" d="M43,73.35a.66.66,0,0,0,.73-.71l-1.44,0C42.33,73.07,42.54,73.34,43,73.35Z"/><path class="cls-16" d="M34.89,91.49c.72.19.71-.28.76-.71.29-2.57.66-5.14.79-7.71.05-1.06-1.16-.64-1.8-.84s-.51.42-.52.75c0,1.75,0,3.5,0,5.26h-.18c0,.8,0,1.6,0,2.39S34.39,91.36,34.89,91.49Z"/><path class="cls-16" d="M42,91.54c.43,0,.93.15.93-.56a46.61,46.61,0,0,1,.51-6.52c.1-.7-.33-.78-.87-.78s-1-.16-1.06.69c-.08,2-.24,4-.36,6C41,91.15,41.32,91.52,42,91.54Z"/><path class="cls-16" d="M48.81,91.08c.82.09.84-.45.94-1,.27-1.69.62-3.36.91-5.05.08-.45.26-1-.54-1-.56,0-1.08-.17-1.17.72-.16,1.74-.45,3.47-.69,5.18C48.44,90.29,47.89,91,48.81,91.08Z"/><path class="cls-16" d="M28.22,89.57c.54.07.36-.5.37-.81,0-.84,0-1.68,0-2.51h0c0-1,0-1.91,0-2.87,0-.76-.57-.63-1-.66s-.88-.16-.86.48c.07,1.91.13,3.82.26,5.73C27,89.65,27.79,89.51,28.22,89.57Z"/><path class="cls-16" d="M21.82,86.27c.47,0,.31-.37.32-.61,0-.47,0-.95,0-1.42h-.07c0-.59,0-1.19,0-1.78,0-.42-.26-.52-.63-.49s-.73.14-.56.74a8.07,8.07,0,0,1,.36,2.86C21.19,86.11,21.46,86.27,21.82,86.27Z"/><path class="cls-16" d="M55,88.93c.31,0,.61,0,.64-.38.08-1.25.13-2.5.19-3.74l-.52-.07c-.23,1.23-.46,2.47-.68,3.7A.38.38,0,0,0,55,88.93Z"/><path class="cls-7" d="M44.09,127.93a.79.79,0,0,0-.26.33c-.1.18-.21.43-.36.76-.26-.42,0-1.11-.7-1.17a.38.38,0,0,0-.26.37,1.46,1.46,0,0,1,0,.43.3.3,0,0,1-.39.29,1.36,1.36,0,0,1-.41-.16,10.17,10.17,0,0,1-4.34.43,5.22,5.22,0,0,1-4-3.28c-.32,0-.75,0-.83-.32-.19-.77-.57-.12-.84-.17a4.39,4.39,0,0,0,.05,1,4.6,4.6,0,0,0,1.32,2.46,8.25,8.25,0,0,0,9.79,1.27l.55-.34a2.6,2.6,0,0,0,1.25-1.46h0C44.42,128,44.25,127.84,44.09,127.93Z"/><path class="cls-4" d="M35.26,120.61c2.63-2.15,5.5-1.83,7.54.86.26.35.48.73.71,1.09.08-.1.15-.21.23-.32.23-.32.48-.57,1-.21a2.23,2.23,0,0,0,0-.47,1.2,1.2,0,0,0-.17-.44c-2.28-3.61-7.14-4.77-10.43-1.22l.55,1.12C34.87,120.88,35.08,120.76,35.26,120.61Z"/><path class="cls-10" d="M45.22,122.52c-.1.16-.21.45-.41.31s-.08-.51-.09-.77l0,0c-.52-.35-.77-.1-1,.21-.08.11-.15.22-.23.32a6.43,6.43,0,0,1,.25.71,5.12,5.12,0,0,1,.21,1.38,5,5,0,0,1-1.2,3.2c.68.06.44.75.7,1.17.15-.33.26-.58.36-.76a.79.79,0,0,1,.26-.33c.16-.09.32.08.62.43h0a4.87,4.87,0,0,0,1.13-2.84,5.17,5.17,0,0,0,0-.74A7.44,7.44,0,0,0,45.22,122.52Z"/><path class="cls-10" d="M32.59,125.61c.08.35.51.31.83.32A6.6,6.6,0,0,1,34.67,121l-.55-1.12a6.3,6.3,0,0,0-1.89,2.75,8.54,8.54,0,0,0-.48,2.79C32,125.49,32.4,124.84,32.59,125.61Z"/><path class="cls-4" d="M44.72,122.06c0,.27-.15.6.09.77s.3-.16.41-.31a1.38,1.38,0,0,0-.05-.19A.36.36,0,0,0,44.72,122.06Z"/><path class="cls-16" d="M8.77,61.44a6.69,6.69,0,0,0,2.09,7.76c3.37,2.61,9.29,1.91,11.77-1.55a5.68,5.68,0,0,0,.5-6.42c-1.64-2.9-4.17-4.42-6.23-4.46C12.42,56.78,9.75,58.61,8.77,61.44Zm9-3.15a2.22,2.22,0,0,1,2.25,2c0,1.16-.87,1.91-2.26,1.9a1.94,1.94,0,0,1-2-1.87A2.06,2.06,0,0,1,17.75,58.29Zm-3,9h0a12.2,12.2,0,0,0,4.77.13,9.74,9.74,0,0,0,2.77-1A5.52,5.52,0,0,1,19.5,69a9.32,9.32,0,0,1-5,.74l-.23,0a.87.87,0,0,1-.41-.23.79.79,0,0,1-.14-.21l-.65-.05h0a.24.24,0,0,1-.31-.15,1.4,1.4,0,0,1-1.27-1.17c-1.48-.52-1.68-1.9-2-3.13A4.3,4.3,0,0,1,10,61.51a4.34,4.34,0,0,0,.24,1.36A5.88,5.88,0,0,0,10.77,64c.43.69,1,1.32,1.43,2l.11.15C13.28,66.21,14.31,66.13,14.73,67.33Z"/><path class="cls-16" d="M65,65.43a5.11,5.11,0,0,0-5.15,4.79c0,2.56,2.33,4.61,5.26,4.59S70,72.93,70,70.31A4.82,4.82,0,0,0,65,65.43Zm1.59,1.22A1.27,1.27,0,0,1,68,68c0,.87-.66,1.09-1.47,1.11-.63-.15-1.44-.19-1.37-1.21A1.24,1.24,0,0,1,66.57,66.66Zm2,4.76a.29.29,0,0,1-.09,0C68.48,72.9,66.6,74,65,74c-2.55,0-4.54-1.77-4.16-4.37A1.55,1.55,0,0,1,61,69.3l.49.68a3.9,3.9,0,0,0,1.77,1.58,1.67,1.67,0,0,1,1,0,1.77,1.77,0,0,1,.8.61,7.85,7.85,0,0,0,3.39-.75l.11-.1S68.56,71.4,68.55,71.41Z"/><path class="cls-2" d="M42.8,121.47c-2-2.68-4.91-3-7.54-.86-.18.15-.39.27-.59.4a6.6,6.6,0,0,0-1.25,4.91,5.22,5.22,0,0,0,4,3.28,10.17,10.17,0,0,0,4.34-.43l.78-.55h0a.38.38,0,0,1,.26-.37,5,5,0,0,0,1.2-3.2,5.12,5.12,0,0,0-.21-1.38,6.43,6.43,0,0,0-.25-.71C43.28,122.2,43.06,121.81,42.8,121.47Zm-4.2,6.61c-2.21,0-3.78-1.43-3.75-3.31a4.27,4.27,0,0,1,3.88-4.1,4.25,4.25,0,0,1,3.8,4.17C42.52,126.76,40.88,128.11,38.6,128.08Z"/><path class="cls-10" d="M41.73,128.77a1.36,1.36,0,0,0,.41.16.3.3,0,0,0,.39-.29,1.46,1.46,0,0,0,0-.43Z"/><path class="cls-17" d="M17.74,62.2c1.39,0,2.27-.74,2.26-1.9a2.22,2.22,0,0,0-2.25-2,2.06,2.06,0,0,0-2.05,2A1.94,1.94,0,0,0,17.74,62.2Z"/><path class="cls-18" d="M14.76,67.65a1.55,1.55,0,0,1-.22.81,2.62,2.62,0,0,1-.81.8.79.79,0,0,0,.14.21.87.87,0,0,0,.41.23l.23,0a9.32,9.32,0,0,0,5-.74,5.52,5.52,0,0,0,2.77-2.52,9.74,9.74,0,0,1-2.77,1,12.2,12.2,0,0,1-4.77-.13h0A2,2,0,0,1,14.76,67.65Z"/><path class="cls-18" d="M12.2,66c-.47-.66-1-1.3-1.43-2a5.88,5.88,0,0,1-.57-1.18A4.34,4.34,0,0,1,10,61.51a4.3,4.3,0,0,0-.45,3.25c.31,1.22.52,2.61,2,3.13a3,3,0,0,1,.81-1.71Z"/><path class="cls-17" d="M11.5,67.89a1.4,1.4,0,0,0,1.27,1.17l.31.15h0l.65.05h0a2.62,2.62,0,0,0,.81-.8,1.55,1.55,0,0,0,.22-.81,2,2,0,0,0,0-.32h0c-.42-1.2-1.44-1.13-2.42-1.15h0A3,3,0,0,0,11.5,67.89Z"/><path class="cls-18" d="M12.76,69.06a.24.24,0,0,0,.31.15h0Z"/><path class="cls-18" d="M65.07,72.19c0,1-.56,1.33-1.38,1.11-1-.28-.65-1.07-.42-1.74A3.9,3.9,0,0,1,61.49,70L61,69.3a1.55,1.55,0,0,0-.21.37c-.38,2.6,1.6,4.39,4.16,4.37,1.64,0,3.52-1.15,3.5-2.6a.29.29,0,0,0,.09,0s0,0,0-.07l-.11.1A7.85,7.85,0,0,1,65.07,72.19Z"/><path class="cls-13" d="M66.49,69.09c.82,0,1.46-.24,1.47-1.11a1.27,1.27,0,0,0-1.39-1.32,1.24,1.24,0,0,0-1.46,1.22C65.05,68.9,65.86,68.94,66.49,69.09Z"/><path class="cls-17" d="M63.68,73.3c.82.22,1.4-.14,1.38-1.11a1.77,1.77,0,0,0-.8-.61,1.67,1.67,0,0,0-1,0C63,72.24,62.64,73,63.68,73.3Z"/><path class="cls-16" d="M38.73,120.66a4.27,4.27,0,0,0-3.88,4.1c0,1.89,1.55,3.28,3.75,3.31s3.92-1.32,3.93-3.25A4.25,4.25,0,0,0,38.73,120.66Zm.88,1c.59.2,1.25.43,1.18,1.22s-.71,1-1.37,1.05a1,1,0,0,1-1.07-1.06C38.34,122.13,38.87,121.76,39.61,121.66Zm1.72,4.61a4.14,4.14,0,0,1-2.25,1.35c-2,0-3.44-1.34-3.47-2.75,0-.18-.07-.44.2-.47a.51.51,0,0,1,.37.22c1.25,1.77,2.93,1.56,4.67,1,.23-.07.46-.25.63,0A.53.53,0,0,1,41.33,126.26Z"/><path class="cls-18" d="M41.49,125.61c-.17-.26-.4-.08-.63,0-1.74.55-3.42.76-4.67-1a.51.51,0,0,0-.37-.22c-.27,0-.21.29-.2.47,0,1.42,1.5,2.74,3.47,2.75a4.14,4.14,0,0,0,2.25-1.35A.53.53,0,0,0,41.49,125.61Z"/><path class="cls-13" d="M39.42,123.93c.66,0,1.3-.29,1.37-1.05s-.59-1-1.18-1.22c-.74.11-1.27.48-1.26,1.21A1,1,0,0,0,39.42,123.93Z"/></g></g></svg>